<svg width="12" height="12" viewBox="0 0 12 12" fill="none" xmlns="http://www.w3.org/2000/svg">
<path
    d="M-4.76837e-07 6C-4.76837e-07 6.41421 0.335786 6.75 0.749999 6.75L9.11242 6.75L5.45626 10.4062C5.15743 10.705 5.16172 11.1908 5.46577 11.4843C5.76233 11.7706 6.23359 11.7664 6.52505 11.475L11.9406 6.0594C11.9734 6.0266 11.9734 5.9734 11.9406 5.9406L6.52617 0.526166C6.23558 0.235575 5.76443 0.235584 5.47385 0.526184C5.18421 0.815844 5.18316 1.28513 5.4715 1.57609L9.11242 5.25L0.749999 5.25C0.335786 5.25 -4.76837e-07 5.58579 -4.76837e-07 6Z"
    fill="var(--ion-color-primary)"
  />
</svg>
