<svg width="23" height="22" viewBox="0 0 23 22" fill="none" xmlns="http://www.w3.org/2000/svg">
<path
    d="M11.5 6C12.25 2.71042 15.0827 1.03074 21.25 1.00001C21.3486 0.999593 21.4463 1.02087 21.5374 1.0626C21.6286 1.10433 21.7114 1.1657 21.7812 1.24316C21.8509 1.32063 21.9061 1.41266 21.9437 1.51395C21.9812 1.61524 22.0004 1.72379 22 1.83334V16.8333C22 17.0543 21.921 17.2663 21.7803 17.4226C21.6397 17.5789 21.4489 17.6667 21.25 17.6667C15.25 17.6667 12.932 19.0109 11.5 21C10.0764 19.0208 7.75 17.6667 1.75 17.6667C1.28688 17.6667 1.00001 17.2474 1.00001 16.7328V1.83334C0.999633 1.72379 1.01878 1.61524 1.05634 1.51395C1.0939 1.41266 1.14913 1.32063 1.21885 1.24316C1.28856 1.1657 1.37139 1.10433 1.46255 1.0626C1.55372 1.02087 1.65141 0.999593 1.75 1.00001C7.91735 1.03074 10.75 2.71042 11.5 6Z"
    stroke="#334356"
    stroke-width="2"
    stroke-linecap="round"
    stroke-linejoin="round"
  />
<path d="M11.5 6V21" stroke="#334356" stroke-width="2" stroke-linecap="round" stroke-linejoin="round" />
</svg>
