<svg width="26" height="24" viewBox="0 0 26 24" fill="none" xmlns="http://www.w3.org/2000/svg">
<path
    d="M13 6.5C13.8571 2.88146 17.0945 1.03381 24.1429 1.00001C24.2555 0.999552 24.3672 1.02295 24.4714 1.06886C24.5756 1.11476 24.6702 1.18227 24.7499 1.26748C24.8296 1.35269 24.8927 1.45392 24.9356 1.56534C24.9785 1.67676 25.0004 1.79617 25 1.91667V18.4167C25 18.6598 24.9097 18.8929 24.7489 19.0649C24.5882 19.2368 24.3702 19.3333 24.1429 19.3333C17.2857 19.3333 14.6366 20.812 13 23C11.373 20.8229 8.71429 19.3333 1.85715 19.3333C1.32786 19.3333 1.00001 18.8721 1.00001 18.3061V1.91667C0.999581 1.79617 1.02146 1.67676 1.06439 1.56534C1.10731 1.45392 1.17043 1.35269 1.25011 1.26748C1.32979 1.18227 1.42445 1.11476 1.52863 1.06886C1.63282 1.02295 1.74447 0.999552 1.85715 1.00001C8.90554 1.03381 12.1429 2.88146 13 6.5Z"
    stroke="#334356"
    stroke-linecap="round"
    stroke-linejoin="round"
  />
<path d="M13 6.5V23" stroke="#334356" stroke-linecap="round" stroke-linejoin="round" />
</svg>
