<svg width="50" height="50" viewBox="0 0 50 50" fill="none" xmlns="http://www.w3.org/2000/svg">
<rect width="50" height="50" rx="9" fill="#5468FF"/>
<path fill-rule="evenodd" clip-rule="evenodd" d="M29.247 28.2582L34.0042 33.206C34.4067 33.6246 34.3933 34.2919 33.9751 34.6944C33.7782 34.8839 33.5189 34.9881 33.2456 34.9881C32.9568 34.9881 32.6874 34.8733 32.487 34.6653L27.6937 29.68C26.3326 30.6365 24.7407 31.1404 23.0702 31.1404C18.6204 31.1404 15 27.52 15 23.0702C15 18.6204 18.6204 15 23.0702 15C27.52 15 31.1404 18.6204 31.1404 23.0702C31.1404 24.9747 30.4702 26.8042 29.247 28.2582ZM29.0351 23.0702C29.0351 19.7811 26.3593 17.1053 23.0702 17.1053C19.7811 17.1053 17.1053 19.7811 17.1053 23.0702C17.1053 26.3593 19.7811 29.0351 23.0702 29.0351C26.3593 29.0351 29.0351 26.3593 29.0351 23.0702Z" fill="white"/>
</svg>
