<svg width="35" height="35" viewBox="0 0 35 35" fill="none" xmlns="http://www.w3.org/2000/svg">
<path d="M33.9068 17.3386C33.9068 22.6004 31.6149 27.3144 27.9966 30.4941C27.2043 31.1911 26.3483 31.8139 25.4383 32.3525C24.7415 32.7658 24.0129 33.1295 23.2579 33.4388C22.4857 33.7551 21.6857 34.0156 20.8623 34.2137C19.9752 34.4281 19.0618 34.5711 18.1269 34.6362C17.7394 34.6638 17.3477 34.6773 16.9533 34.6773C16.559 34.6773 16.1672 34.6638 15.7798 34.6362C14.8449 34.5711 13.9308 34.4281 13.0437 34.2137C12.2203 34.0156 11.4203 33.7551 10.6488 33.4388C9.89382 33.1295 9.16522 32.7657 8.46837 32.3525C7.55844 31.8139 6.70175 31.1905 5.90944 30.4941C2.29115 27.3136 0 22.5997 0 17.3386C0 7.76277 7.59026 0 16.9533 0C26.3164 0 33.9068 7.7627 33.9068 17.3386Z" fill="#AEB8FF"/>
<path d="M32.9772 23.0755C30.6785 29.8631 24.3725 34.7363 16.9539 34.7363C14.2358 34.7363 11.6672 34.0824 9.3899 32.9197C5.88709 26.0741 3.08667 18.8661 1.03774 11.412C0.693853 10.1621 0.371377 8.90457 0.0703818 7.6413C-0.25623 6.27118 0.585917 4.89397 1.93319 4.5918C3.56278 4.22665 5.19171 3.86075 6.8213 3.49486C11.371 2.4744 15.9201 1.45319 20.4698 0.432663C20.6684 0.388111 20.8676 0.343492 21.0662 0.29894C21.3354 0.238764 21.6046 0.177907 21.8745 0.1178C22.6329 -0.0520153 23.3857 0.155324 23.947 0.620967C24.3497 0.95357 24.6535 1.41928 24.7884 1.97266C24.7925 1.98965 24.7966 2.00732 24.8015 2.02431C25.0949 3.22318 25.4132 4.4142 25.7565 5.59677C26.173 7.03054 26.6256 8.45162 27.1141 9.85926C28.698 14.426 30.6598 18.847 32.9772 23.0755Z" fill="white"/>
<g clip-path="url(#clip0)">
<path d="M16.4696 4.5278L12.7048 5.78748L13.5247 8.23787L17.2895 6.9782C17.6034 6.87315 17.8102 6.64528 17.7513 6.46926L17.1447 4.65632C17.0858 4.4803 16.7836 4.42276 16.4696 4.5278Z" fill="#AEB8FF"/>
<path fill-rule="evenodd" clip-rule="evenodd" d="M17.0027 10.0751L18.1928 9.67692C18.4559 9.58888 18.8148 9.64764 18.8812 9.84603L19.4978 11.6887L8.66465 15.3135L8.07432 13.462C8.00794 13.2636 8.16745 13.0314 8.43057 12.9433L9.62071 12.5451C9.88383 12.4571 10.151 12.5465 10.2174 12.7449L10.5553 13.755L12.6983 13.0379L12.3604 12.0279C12.294 11.8295 12.4535 11.5973 12.7166 11.5092L12.8352 11.4695L11.0275 6.06693C10.9612 5.86853 11.1207 5.63632 11.3838 5.54828C11.6469 5.46024 11.9141 5.5497 11.9804 5.74809L13.7881 11.1507L13.9067 11.111C14.1699 11.023 14.437 11.1124 14.5034 11.3108L14.8413 12.3209L16.9844 11.6038L16.6464 10.5938C16.58 10.3954 16.7395 10.1632 17.0027 10.0751ZM19.4978 11.6887L19.261 13.2388C19.2044 13.6094 18.9453 13.9172 18.5898 14.0361L10.8025 16.6417C10.447 16.7606 10.0548 16.6708 9.78662 16.4089L8.66466 15.3135L19.4978 11.6887Z" fill="#AEB8FF"/>
<path d="M10.8753 18.3203C10.7055 17.8128 10.9793 17.2637 11.4868 17.0939L18.3155 14.8091C18.823 14.6393 19.372 14.913 19.5418 15.4205C19.7116 15.928 19.4379 16.477 18.9304 16.6469L12.1017 18.9317C11.5942 19.1015 11.0451 18.8278 10.8753 18.3203Z" fill="#AEB8FF"/>
</g>
<path d="M32.9771 23.0756C30.6783 29.8631 24.3724 34.7364 16.9537 34.7364C14.2356 34.7364 11.667 34.0824 9.38976 32.9197C8.65001 31.4746 7.94215 30.0132 7.26611 28.5369C7.94008 29.0182 8.64934 29.4505 9.38976 29.8285C11.667 30.9913 14.2356 31.6452 16.9537 31.6452C23.7102 31.6452 29.5442 27.6028 32.2678 21.7536C32.5003 22.1966 32.737 22.6368 32.9771 23.0756Z" fill="#E0DDFF"/>
<path d="M26.8945 19.2607L23.0843 21.8081L19.0837 24.4826L18.947 19.5964L18.817 14.9429L20.6739 15.026L25.6655 15.2511L26.8945 19.2607Z" fill="#F3F2FF"/>
<path d="M13.0824 26.4622C12.6343 26.4269 12.2227 26.1674 12.0505 25.7671C11.8134 25.2157 12.1201 24.606 12.7356 24.4052L24.8342 20.4592C25.4497 20.2584 26.1409 20.5426 26.3781 21.094C26.6153 21.6454 26.3086 22.2551 25.693 22.4558L13.5944 26.4019C13.4258 26.4569 13.2515 26.4755 13.0824 26.4622Z" fill="#E0DDFF"/>
<path d="M19.0838 24.4826L18.9471 19.5964L18.8171 14.9429L20.674 15.026L21.4567 16.8638L19.0838 24.4826Z" fill="#E8E8FF"/>
<path d="M33.9761 5.40422L32.3509 8.58437L24.2734 4.26648L25.8987 1.08632C26.3011 0.298925 27.2513 -0.00563625 28.0211 0.405835L33.3107 3.23347C34.0806 3.64508 34.3785 4.61689 33.9761 5.40422Z" fill="#00BAB0"/>
<path d="M33.9762 5.40417L32.3509 8.58433L26.7396 5.58476L28.3649 2.40461C28.7673 1.61728 29.7175 1.31265 30.4873 1.72412L33.3109 3.23342C34.0807 3.64503 34.3785 4.61684 33.9762 5.40417Z" fill="#00D9CD"/>
<path d="M32.3137 8.65733L26.8948 19.2606C25.7796 18.6645 24.4027 19.1059 23.8199 20.2464C24.4027 19.1059 23.9712 17.6977 22.8561 17.1016C21.7409 16.5055 20.3641 16.9469 19.7812 18.0873C20.3641 16.9469 19.9325 15.5387 18.8174 14.9426L24.2364 4.33929L32.3137 8.65733Z" fill="#5468FF"/>
<path d="M32.3136 8.65737L26.8946 19.2607C25.7795 18.6646 24.4026 19.1059 23.8198 20.2464C24.4026 19.1059 23.9711 17.6977 22.856 17.1016L28.2749 6.49835L32.3136 8.65737Z" fill="#99A5FF"/>
<path d="M30.2942 7.57796L23.8197 20.2465C24.4025 19.1061 23.971 17.6979 22.8559 17.1018C21.7407 16.5057 20.3639 16.947 19.781 18.0875L26.2555 5.41895L30.2942 7.57796Z" fill="#8492FF"/>
<path d="M32.8138 8.92485C32.6897 9.1676 32.4818 9.33564 32.2457 9.41137C32.0095 9.4871 31.7449 9.47039 31.5077 9.34355L24.1451 5.40786C23.6712 5.15454 23.4879 4.55681 23.7356 4.07206C23.8597 3.82931 24.0676 3.66127 24.3037 3.58554C24.5399 3.50981 24.8044 3.52653 25.0417 3.65336L32.4043 7.58912C32.8783 7.84237 33.0615 8.44017 32.8138 8.92485Z" fill="#E8E8FF"/>
<path d="M32.8139 8.92489C32.6898 9.16763 32.4819 9.33567 32.2458 9.41141C32.0096 9.48714 31.745 9.47042 31.5077 9.34359L26.3611 6.59237C25.8872 6.33905 25.704 5.74132 25.9517 5.25657C26.0758 5.01382 26.2836 4.84578 26.5198 4.77005C26.7559 4.69432 27.0205 4.71104 27.2578 4.83787L32.4044 7.58909C32.8784 7.84241 33.0616 8.44021 32.8139 8.92489Z" fill="white"/>
<path d="M23.0845 21.8081L19.0838 24.4825L18.9471 19.5965C19.476 19.5803 20.0132 19.6545 20.5348 19.8253C20.7938 19.9097 21.0487 20.0182 21.2975 20.1511C22.0488 20.5527 22.6519 21.1301 23.0845 21.8081Z" fill="#344356"/>
<path d="M19.0838 24.4826L18.9471 19.5965C19.476 19.5804 20.0132 19.6545 20.5348 19.8254L19.0838 24.4826Z" fill="black"/>
<defs>
<clipPath id="clip0">
<rect width="13.7081" height="12.9196" fill="white" transform="translate(6 7.34967) rotate(-18.5)"/>
</clipPath>
</defs>
</svg>
