<svg width="35" height="35" viewBox="0 0 35 35" fill="none" xmlns="http://www.w3.org/2000/svg">
<path d="M34.2222 17.5C34.2222 27.1651 26.5614 35 17.1111 35C7.66078 35 0 27.1651 0 17.5C0 7.83489 7.66078 0 17.1111 0C26.5614 0 34.2222 7.83489 34.2222 17.5Z" fill="#AEB8FF"/>
<path d="M27.6718 4.10156V28.0273H3.44197C3.30045 27.8354 3.16312 27.6402 3.02917 27.4423L3.35659 25.2719C4.39261 18.4047 5.13517 11.4967 5.58399 4.56699C5.75422 4.40811 5.92837 4.2535 6.10487 4.10156L27.6718 4.10156Z" fill="white"/>
<path fill-rule="evenodd" clip-rule="evenodd" d="M18.4811 0.683594V23.3789C18.4811 23.7565 18.1819 24.0625 17.8127 24.0625H16.409C16.0399 24.0625 15.7406 23.7565 15.7406 23.3789V0.683594C15.7406 0.306015 16.0399 0 16.409 0H17.8127C18.1819 0 18.4811 0.306015 18.4811 0.683594ZM21.2775 22.6464C21.182 22.2819 20.8157 22.0654 20.459 22.1631L19.1031 22.5348C18.7467 22.6323 18.535 23.0072 18.6306 23.3719L21.523 34.4115C22.4175 34.1679 23.2833 33.8531 24.1138 33.4715L21.2775 22.6464ZM13.7631 22.1631L15.1189 22.5348C15.4753 22.6323 15.6871 23.0072 15.5915 23.372L12.6991 34.4115C11.8049 34.1679 10.9388 33.8531 10.1083 33.4715L12.9445 22.6464C13.0401 22.282 13.4064 22.0654 13.7631 22.1631Z" fill="black"/>
<path fill-rule="evenodd" clip-rule="evenodd" d="M18.4813 0.683594V23.3789C18.4813 23.7565 18.1821 24.0625 17.8129 24.0625C17.4437 24.0625 17.1445 23.7565 17.1445 23.3789V0.683594C17.1445 0.306015 17.4437 0 17.8129 0C18.1821 0 18.4813 0.306015 18.4813 0.683594ZM15.1189 22.5348C14.7623 22.4371 14.3957 22.6534 14.3001 23.0182L11.421 34.0077C11.8398 34.1589 12.2662 34.2937 12.6991 34.4115L15.5915 23.372C15.687 23.0072 15.4753 22.6323 15.1189 22.5348ZM20.4591 22.1631C20.8157 22.0654 21.182 22.2819 21.2776 22.6464L24.1139 33.4715C23.7055 33.659 23.2888 33.8301 22.8643 33.985L19.9865 23.0005C19.8909 22.6357 20.1024 22.2608 20.4591 22.1631Z" fill="#344356"/>
<path d="M28.808 3.41797V4.78516C28.808 5.16273 28.5088 5.46875 28.1396 5.46875H28.1062V30.0781C28.1062 30.4557 27.807 30.7617 27.4378 30.7617H6.78417C6.41498 30.7617 6.11576 30.4557 6.11576 30.0781V5.46875H6.08234C5.71316 5.46875 5.41394 5.16273 5.41394 4.78516V3.41797C5.41394 3.04039 5.71316 2.73438 6.08234 2.73438H28.1396C28.5088 2.73438 28.808 3.04039 28.808 3.41797Z" fill="#DADFFF"/>
<path fill-rule="evenodd" clip-rule="evenodd" d="M7.35236 2.73438H28.1397C28.5089 2.73438 28.8081 3.04039 28.8081 3.41797C28.8081 3.79555 28.5089 4.10156 28.1397 4.10156H7.35236C6.98317 4.10156 6.68396 3.79555 6.68396 3.41797C6.68396 3.04039 6.98317 2.73438 7.35236 2.73438ZM28.1063 5.46875H8.72266C7.98428 5.46875 7.38585 6.08078 7.38585 6.83594V30.7617H27.4379C27.8071 30.7617 28.1063 30.4557 28.1063 30.0781V5.46875Z" fill="white"/>
<path d="M28.2064 31.4453H6.01545C5.64626 31.4453 5.34705 31.1393 5.34705 30.7617V30.0781C5.34705 29.7005 5.64626 29.3945 6.01545 29.3945H28.2064C28.5756 29.3945 28.8748 29.7005 28.8748 30.0781V30.7617C28.8748 31.1393 28.5756 31.4453 28.2064 31.4453Z" fill="#3D56F0"/>
<path d="M28.2065 31.4453H7.35236C6.98317 31.4453 6.68396 31.1393 6.68396 30.7617V30.0781C6.68396 29.7005 6.98317 29.3945 7.35236 29.3945H28.2065C28.5757 29.3945 28.8749 29.7005 28.8749 30.0781V30.7617C28.8749 31.1393 28.5757 31.4453 28.2065 31.4453Z" fill="#5468FF"/>
<path fill-rule="evenodd" clip-rule="evenodd" d="M18.5481 6.83594H15.206C14.5611 6.83594 14.0363 7.37267 14.0363 8.03223V11.4502C14.0363 12.1098 14.5611 12.6465 15.206 12.6465H18.5481C19.193 12.6465 19.7178 12.1098 19.7178 11.4502V8.03223C19.7178 7.37267 19.193 6.83594 18.5481 6.83594ZM8.02075 23.0371C8.02075 21.2467 9.44502 19.79 11.1957 19.79C12.9463 19.79 14.3706 21.2467 14.3706 23.0371C14.3706 24.8275 12.9463 26.2842 11.1957 26.2842C9.44502 26.2842 8.02075 24.8275 8.02075 23.0371ZM9.02332 23.0371C9.02332 24.2622 9.99772 25.2588 11.1956 25.2588C12.3935 25.2588 13.3679 24.2622 13.3679 23.0371C13.3679 21.812 12.3935 20.8154 11.1956 20.8154C9.99772 20.8154 9.02332 21.812 9.02332 23.0371ZM18.5481 11.6211C18.6402 11.6211 18.7152 11.5445 18.7152 11.4502V8.03223C18.7152 7.93797 18.6402 7.86133 18.5481 7.86133H15.206C15.1139 7.86133 15.0389 7.93797 15.0389 8.03223V11.4502C15.0389 11.5445 15.1139 11.6211 15.206 11.6211H18.5481Z" fill="#93A0FF"/>
<path fill-rule="evenodd" clip-rule="evenodd" d="M23.0597 27.5146C23.0597 27.7977 22.8352 28.0273 22.5584 28.0273C22.2817 28.0273 22.0571 27.7977 22.0571 27.5146C22.0571 27.2316 22.2817 27.002 22.5584 27.002C22.8352 27.002 23.0597 27.2316 23.0597 27.5146ZM24.2295 27.002C23.9527 27.002 23.7282 27.2316 23.7282 27.5146C23.7282 27.7977 23.9527 28.0273 24.2295 28.0273C24.5062 28.0273 24.7308 27.7977 24.7308 27.5146C24.7308 27.2316 24.5062 27.002 24.2295 27.002ZM25.3992 27.5146C25.3992 27.2316 25.6237 27.002 25.9005 27.002C26.1772 27.002 26.4018 27.2316 26.4018 27.5146C26.4018 27.7977 26.1772 28.0273 25.9005 28.0273C25.6237 28.0273 25.3992 27.7977 25.3992 27.5146Z" fill="#00D9CD"/>
<path fill-rule="evenodd" clip-rule="evenodd" d="M26.2124 20.5078H22.1004C22.0265 20.5078 21.9667 20.569 21.9667 20.6445V21.3965C21.9667 21.4721 22.0265 21.5332 22.1004 21.5332H26.2124C26.2862 21.5332 26.346 21.4721 26.346 21.3965V20.6445C26.346 20.569 26.286 20.5078 26.2124 20.5078ZM26.2124 24.6094H22.1004C22.0265 24.6094 21.9667 24.6705 21.9667 24.7461V25.498C21.9667 25.5736 22.0265 25.6348 22.1004 25.6348H26.2124C26.2862 25.6348 26.346 25.5736 26.346 25.498V24.7461C26.346 24.6705 26.286 24.6094 26.2124 24.6094ZM20.9194 22.5586H26.2124C26.286 22.5586 26.346 22.6197 26.346 22.6953V23.4473C26.346 23.5228 26.2863 23.584 26.2124 23.584H20.9194C20.8458 23.584 20.7858 23.5228 20.7858 23.4473V22.6953C20.7858 22.6197 20.8458 22.5586 20.9194 22.5586Z" fill="#00D9CD"/>
<path d="M30.431 10.3832L28.5407 12.3165C28.2796 12.5835 27.8564 12.5835 27.5953 12.3165L24.7595 9.41627C24.4984 9.14924 24.4984 8.71638 24.7595 8.44962L26.6501 6.51607C26.911 6.24904 27.3342 6.24904 27.5953 6.51607L30.431 9.41627C30.6921 9.6833 30.6921 10.1161 30.431 10.3832Z" fill="#344356"/>
<path d="M14.858 24.3765L13.359 25.9096C13.1081 26.1659 12.7682 26.3101 12.4136 26.3101H11.2105C11.1368 26.3101 11.0768 26.2487 11.0768 26.1734V24.9429C11.0768 24.5803 11.2178 24.2326 11.4684 23.976L12.9674 22.443L14.858 24.3765Z" fill="#3D56F0"/>
<path d="M29.9584 10.8665L17.7903 23.3111C17.6036 23.502 17.366 23.6321 17.107 23.685L15.195 24.0761C14.8666 24.1434 14.5272 24.0382 14.2904 23.796L13.535 23.0235C13.2982 22.7816 13.1956 22.4342 13.2611 22.0985L13.6436 20.1428C13.6953 19.8782 13.8225 19.6349 14.0092 19.4443L26.1775 6.99939L29.9584 10.8665Z" fill="#3D56F0"/>
<path d="M29.9583 10.8664L17.7903 23.311C17.6036 23.502 17.366 23.632 17.107 23.6849L15.195 24.0761C14.8665 24.1434 14.5271 24.0381 14.2903 23.796L14.7777 21.303C14.8294 21.0381 14.9569 20.7951 15.1433 20.6042L27.3116 8.15955L29.9583 10.8664Z" fill="#5468FF"/>
<path d="M17.7904 23.3111L16.7487 24.3765C16.2265 24.9106 15.38 24.9106 14.8581 24.3765L13.9129 25.3434L12.0223 23.4099L12.9675 22.4432C12.4456 21.9092 12.4456 21.0434 12.9675 20.5097L14.0093 19.4442L17.7904 23.3111Z" fill="#344356"/>
</svg>
