<svg width="104" height="105" viewBox="0 0 104 105" fill="none" xmlns="http://www.w3.org/2000/svg">
<path d="M71.0404 1.42166C40.3704 -8.26834 -6.17957 33.6017 0.680431 65.5717C7.54043 97.5417 67.5104 116.772 91.4404 95.3017C115.55 73.6117 102.15 11.2317 71.0404 1.42166Z" fill="#FF0015"/>
<path d="M59.6804 5.14167C36.4604 -2.18833 1.22045 29.5017 6.38045 53.7117C11.5404 77.9217 56.9705 92.4717 75.0805 76.2117C93.3305 59.8017 83.1904 12.5717 59.6804 5.14167Z" fill="#FF1F39"/>
<path d="M47.2704 12.6817C33.7604 8.42167 13.2704 26.8617 16.2704 40.9517C19.2704 55.0417 45.6804 63.5017 56.2304 54.0117C66.7804 44.5217 60.9704 17.0117 47.2704 12.6817Z" fill="#FF3F65"/>
<path d="M33.6804 18.7817C28.8304 17.2517 21.4704 23.8717 22.5504 28.9217C23.6304 33.9717 33.1104 37.0117 36.9004 33.6217C40.6904 30.2317 38.5704 20.3317 33.6804 18.7817Z" fill="#FF94BB"/>
<path d="M47.2305 51.9918C51.8697 51.9918 55.6305 48.231 55.6305 43.5918C55.6305 38.9526 51.8697 35.1918 47.2305 35.1918C42.5913 35.1918 38.8304 38.9526 38.8304 43.5918C38.8304 48.231 42.5913 51.9918 47.2305 51.9918Z" fill="#42210B"/>
</svg>
