<svg width="35" height="35" viewBox="0 0 35 35" fill="none" xmlns="http://www.w3.org/2000/svg">
<path d="M34.2222 17.5C34.2222 27.1651 26.5614 35 17.1111 35C7.66078 35 0 27.1651 0 17.5C0 7.83489 7.66078 0 17.1111 0C26.5614 0 34.2222 7.83489 34.2222 17.5Z" fill="#AEB8FF"/>
<path d="M27.6718 4.10156V28.0273H3.44197C3.30045 27.8354 3.16312 27.6402 3.02917 27.4423L3.35659 25.2719C4.39261 18.4047 5.13517 11.4967 5.58399 4.56699C5.75422 4.40811 5.92837 4.2535 6.10487 4.10156L27.6718 4.10156Z" fill="white"/>
<path fill-rule="evenodd" clip-rule="evenodd" d="M18.4811 0.683594V23.3789C18.4811 23.7565 18.1819 24.0625 17.8127 24.0625H16.409C16.0399 24.0625 15.7406 23.7565 15.7406 23.3789V0.683594C15.7406 0.306015 16.0399 0 16.409 0H17.8127C18.1819 0 18.4811 0.306015 18.4811 0.683594ZM21.2775 22.6464C21.182 22.2819 20.8157 22.0654 20.459 22.1631L19.1031 22.5348C18.7467 22.6323 18.535 23.0072 18.6306 23.3719L21.523 34.4115C22.4175 34.1679 23.2833 33.8531 24.1138 33.4715L21.2775 22.6464ZM13.7631 22.1631L15.1189 22.5348C15.4753 22.6323 15.6871 23.0072 15.5915 23.372L12.6991 34.4115C11.8049 34.1679 10.9388 33.8531 10.1083 33.4715L12.9445 22.6464C13.0401 22.282 13.4064 22.0654 13.7631 22.1631Z" fill="black"/>
<path fill-rule="evenodd" clip-rule="evenodd" d="M18.4813 0.683594V23.3789C18.4813 23.7565 18.1821 24.0625 17.8129 24.0625C17.4437 24.0625 17.1445 23.7565 17.1445 23.3789V0.683594C17.1445 0.306015 17.4437 0 17.8129 0C18.1821 0 18.4813 0.306015 18.4813 0.683594ZM15.1189 22.5348C14.7623 22.4371 14.3957 22.6534 14.3001 23.0182L11.421 34.0077C11.8398 34.1589 12.2662 34.2937 12.6991 34.4115L15.5915 23.372C15.687 23.0072 15.4753 22.6323 15.1189 22.5348ZM20.4591 22.1631C20.8157 22.0654 21.182 22.2819 21.2776 22.6464L24.1139 33.4715C23.7055 33.659 23.2888 33.8301 22.8643 33.985L19.9865 23.0005C19.8909 22.6357 20.1024 22.2608 20.4591 22.1631Z" fill="#344356"/>
<path d="M28.808 3.41797V4.78516C28.808 5.16273 28.5088 5.46875 28.1396 5.46875H28.1062V30.0781C28.1062 30.4557 27.807 30.7617 27.4378 30.7617H6.78417C6.41498 30.7617 6.11576 30.4557 6.11576 30.0781V5.46875H6.08234C5.71316 5.46875 5.41394 5.16273 5.41394 4.78516V3.41797C5.41394 3.04039 5.71316 2.73438 6.08234 2.73438H28.1396C28.5088 2.73438 28.808 3.04039 28.808 3.41797Z" fill="#DADFFF"/>
<path fill-rule="evenodd" clip-rule="evenodd" d="M7.35236 2.73438H28.1397C28.5089 2.73438 28.8081 3.04039 28.8081 3.41797C28.8081 3.79555 28.5089 4.10156 28.1397 4.10156H7.35236C6.98317 4.10156 6.68396 3.79555 6.68396 3.41797C6.68396 3.04039 6.98317 2.73438 7.35236 2.73438ZM28.1063 5.46875H8.72266C7.98428 5.46875 7.38585 6.08078 7.38585 6.83594V30.7617H27.4379C27.8071 30.7617 28.1063 30.4557 28.1063 30.0781V5.46875Z" fill="white"/>
<path d="M28.2064 31.4453H6.01545C5.64626 31.4453 5.34705 31.1393 5.34705 30.7617V30.0781C5.34705 29.7005 5.64626 29.3945 6.01545 29.3945H28.2064C28.5756 29.3945 28.8748 29.7005 28.8748 30.0781V30.7617C28.8748 31.1393 28.5756 31.4453 28.2064 31.4453Z" fill="#3D56F0"/>
<path d="M28.2065 31.4453H7.35236C6.98317 31.4453 6.68396 31.1393 6.68396 30.7617V30.0781C6.68396 29.7005 6.98317 29.3945 7.35236 29.3945H28.2065C28.5757 29.3945 28.8749 29.7005 28.8749 30.0781V30.7617C28.8749 31.1393 28.5757 31.4453 28.2065 31.4453Z" fill="#5468FF"/>
<circle cx="11.5" cy="23.5" r="3" fill="#3D56F0" stroke="#AEB8FF"/>
<rect x="14.5" y="7.5" width="4" height="4" rx="0.5" stroke="#AEB8FF"/>
<path fill-rule="evenodd" clip-rule="evenodd" d="M23.0597 27.5146C23.0597 27.7977 22.8352 28.0273 22.5584 28.0273C22.2817 28.0273 22.0571 27.7977 22.0571 27.5146C22.0571 27.2316 22.2817 27.002 22.5584 27.002C22.8352 27.002 23.0597 27.2316 23.0597 27.5146ZM24.2295 27.002C23.9527 27.002 23.7282 27.2316 23.7282 27.5146C23.7282 27.7977 23.9527 28.0273 24.2295 28.0273C24.5062 28.0273 24.7308 27.7977 24.7308 27.5146C24.7308 27.2316 24.5062 27.002 24.2295 27.002ZM25.3992 27.5146C25.3992 27.2316 25.6237 27.002 25.9005 27.002C26.1772 27.002 26.4018 27.2316 26.4018 27.5146C26.4018 27.7977 26.1772 28.0273 25.9005 28.0273C25.6237 28.0273 25.3992 27.7977 25.3992 27.5146Z" fill="#00D9CD"/>
<path fill-rule="evenodd" clip-rule="evenodd" d="M26.2124 20.5078H22.1004C22.0265 20.5078 21.9667 20.569 21.9667 20.6445V21.3965C21.9667 21.4721 22.0265 21.5332 22.1004 21.5332H26.2124C26.2862 21.5332 26.346 21.4721 26.346 21.3965V20.6445C26.346 20.569 26.286 20.5078 26.2124 20.5078ZM26.2124 24.6094H22.1004C22.0265 24.6094 21.9667 24.6705 21.9667 24.7461V25.498C21.9667 25.5736 22.0265 25.6348 22.1004 25.6348H26.2124C26.2862 25.6348 26.346 25.5736 26.346 25.498V24.7461C26.346 24.6705 26.286 24.6094 26.2124 24.6094ZM20.9194 22.5586H26.2124C26.286 22.5586 26.346 22.6197 26.346 22.6953V23.4473C26.346 23.5228 26.2863 23.584 26.2124 23.584H20.9194C20.8458 23.584 20.7858 23.5228 20.7858 23.4473V22.6953C20.7858 22.6197 20.8458 22.5586 20.9194 22.5586Z" fill="#00D9CD"/>
<path d="M31.3544 9.06738L29.4641 11.0007C29.203 11.2677 28.7797 11.2677 28.5186 11.0007L25.6829 8.10047C25.4218 7.83344 25.4218 7.40059 25.6829 7.13383L27.5735 5.20027C27.8343 4.93324 28.2575 4.93324 28.5186 5.20027L31.3544 8.10047C31.6155 8.3675 31.6155 8.80035 31.3544 9.06738Z" fill="#344356"/>
<path d="M15.7812 23.0608L14.2822 24.5938C14.0313 24.8501 13.6914 24.9943 13.3368 24.9943H12.1337C12.0601 24.9943 12 24.9329 12 24.8576V23.6271C12 23.2645 12.141 22.9168 12.3916 22.6602L13.8906 21.1272L15.7812 23.0608Z" fill="#3D56F0"/>
<path d="M30.8817 9.5507L18.7137 21.9953C18.527 22.1862 18.2894 22.3163 18.0304 22.3692L16.1184 22.7604C15.7899 22.8276 15.4505 22.7224 15.2137 22.4802L14.4583 21.7077C14.2215 21.4658 14.1189 21.1184 14.1845 20.7827L14.567 18.827C14.6187 18.5624 14.7458 18.3191 14.9325 18.1285L27.1008 5.68359L30.8817 9.5507Z" fill="#3D56F0"/>
<path d="M30.8817 9.55062L18.7136 21.9952C18.5269 22.1862 18.2893 22.3162 18.0303 22.3691L16.1183 22.7603C15.7899 22.8276 15.4504 22.7224 15.2136 22.4802L15.7011 19.9872C15.7528 19.7223 15.8802 19.4793 16.0666 19.2884L28.2349 6.84375L30.8817 9.55062Z" fill="#5468FF"/>
<path d="M18.7137 21.9953L17.6719 23.0607C17.1497 23.5948 16.3032 23.5948 15.7813 23.0607L14.8361 24.0276L12.9456 22.0941L13.8907 21.1274C13.3688 20.5934 13.3688 19.7277 13.8907 19.1939L14.9325 18.1284L18.7137 21.9953Z" fill="#344356"/>
</svg>
