<svg width="85" height="85" viewBox="0 0 85 85" fill="none" xmlns="http://www.w3.org/2000/svg">
<path d="M42.5 85C65.9721 85 85 65.9721 85 42.5C85 19.0279 65.9721 0 42.5 0C19.0279 0 0 19.0279 0 42.5C0 65.9721 19.0279 85 42.5 85Z" fill="#AEB8FF"/>
<mask id="mask0" mask-type="alpha" maskUnits="userSpaceOnUse" x="0" y="0" width="85" height="85">
<path d="M42.5 85C65.9721 85 85 65.9721 85 42.5C85 19.0279 65.9721 0 42.5 0C19.0279 0 0 19.0279 0 42.5C0 65.9721 19.0279 85 42.5 85Z" fill="white"/>
</mask>
<g mask="url(#mask0)">
<rect opacity="0.8" x="46.3828" y="17.1303" width="31" height="43" rx="7" transform="rotate(20 46.3828 17.1303)" fill="white"/>
<rect opacity="0.8" width="31" height="43" rx="7" transform="matrix(-0.939693 0.34202 0.34202 0.939693 38.8064 17.1303)" fill="white"/>
<g filter="url(#filter0_d)">
<rect x="25" y="18" width="35" height="49" rx="7" fill="white"/>
</g>
<rect x="32" y="25" width="21" height="5" rx="2.5" fill="#3D56F0"/>
<rect x="32" y="45" width="21" height="5" rx="2.5" fill="#00D9CD"/>
<rect opacity="0.4" x="32" y="53" width="21" height="5" rx="2.5" fill="#3D56F0"/>
<rect x="37" y="33" width="11" height="5" rx="2.5" fill="#3D56F0"/>
</g>
<defs>
<filter id="filter0_d" x="12" y="12" width="61" height="75" filterUnits="userSpaceOnUse" color-interpolation-filters="sRGB">
<feFlood flood-opacity="0" result="BackgroundImageFix"/>
<feColorMatrix in="SourceAlpha" type="matrix" values="0 0 0 0 0 0 0 0 0 0 0 0 0 0 0 0 0 0 127 0"/>
<feOffset dy="7"/>
<feGaussianBlur stdDeviation="6.5"/>
<feColorMatrix type="matrix" values="0 0 0 0 0.239216 0 0 0 0 0.335551 0 0 0 0 0.941176 0 0 0 0.525158 0"/>
<feBlend mode="normal" in2="BackgroundImageFix" result="effect1_dropShadow"/>
<feBlend mode="normal" in="SourceGraphic" in2="effect1_dropShadow" result="shape"/>
</filter>
</defs>
</svg>
