<svg width="35" height="35" viewBox="0 0 35 35" fill="none" xmlns="http://www.w3.org/2000/svg">
<path d="M17.111 34.9997C26.5611 34.9997 34.222 27.1648 34.222 17.4999C34.222 7.83496 26.5611 0 17.111 0C7.66085 0 0 7.83496 0 17.4999C0 27.1648 7.66085 34.9997 17.111 34.9997Z" fill="#AEB8FF"/>
<path d="M9.13698 0.00907961C4.20089 0.117156 0.160799 4.20443 0.00479404 9.25127C-0.0727407 11.7586 0.794846 14.0575 2.27048 15.8041C2.93507 16.5907 3.12476 17.6867 2.78288 18.6656L2.16835 20.4254C1.96849 20.9977 2.61664 21.487 3.09255 21.123L5.27214 19.4558C5.92069 18.9597 6.74423 18.7752 7.53883 18.9353C8.36624 19.1021 9.23263 19.1572 10.1237 19.0818C14.8117 18.6851 18.5088 14.7199 18.6772 9.91203C18.8703 4.40534 14.5045 -0.10843 9.13698 0.00907961Z" fill="#5468FF"/>
<path d="M30.3997 24.5943C29.6091 25.57 29.3584 26.8886 29.7746 28.0815L30.0701 28.9279C29.6971 29.37 29.3026 29.7929 28.8883 30.195L27.0529 28.7929C26.2784 28.2022 25.2992 27.9679 24.3494 28.1486C23.7368 28.2658 23.051 28.3693 22.553 28.3693C16.9273 28.3693 12.3674 23.7058 12.3674 17.9522C12.3668 12.2044 16.9322 7.53516 22.553 7.53516C28.178 7.53516 32.7386 12.1987 32.7386 17.9522C32.7387 20.4765 31.8601 22.7915 30.3997 24.5943Z" fill="white"/>
<path d="M26.7642 17.7471C26.7642 17.4471 26.5599 17.2177 26.2927 17.2177C26.0255 17.2177 25.8212 17.4471 25.8212 17.7471C25.8212 19.8118 24.3281 21.4882 22.4892 21.4882C20.6503 21.4882 19.1572 19.8118 19.1572 17.7471C19.1572 17.4471 18.9529 17.2177 18.6857 17.2177C18.4186 17.2177 18.2142 17.4471 18.2142 17.7471C18.2142 20.2 19.8488 22.2647 22.0177 22.5294V23.9412H20.3046C20.0374 23.9412 19.8331 24.1706 19.8331 24.4706C19.8331 24.7706 20.0374 25 20.3046 25H24.6738C24.941 25 25.1454 24.7706 25.1454 24.4706C25.1454 24.1706 24.941 23.9412 24.6738 23.9412H22.9607V22.5294C25.1296 22.2647 26.7642 20.2 26.7642 17.7471Z" fill="#00D9CD"/>
<path fill-rule="evenodd" clip-rule="evenodd" d="M21.058 10.4786C21.4701 10.1761 21.9619 10 22.4893 10C23.9353 10 25.114 11.3235 25.114 12.9471V17.7471C25.114 19.3706 23.9353 20.6941 22.4893 20.6941C21.9619 20.6877 21.4701 20.5099 21.058 20.2069V10.4786Z" fill="#5468FF"/>
<path d="M19.8646 12.9471V17.7294C19.8646 18.772 20.3403 19.6792 21.058 20.2069V10.4786C20.3403 11.0054 19.8646 11.9157 19.8646 12.9471Z" fill="#5468FF"/>
<path d="M19.8652 12.9629V17.7452C19.8652 18.7878 20.3409 19.695 21.0586 20.2227V10.4944C20.3409 11.0212 19.8652 11.9315 19.8652 12.9629Z" fill="#3D56F0"/>
<path fill-rule="evenodd" clip-rule="evenodd" d="M9.97941 11.3926C9.97941 10.4758 9.99679 9.94672 10.9449 9.18862C11.4105 8.81832 12.8758 7.61922 12.8758 5.96185C12.8758 4.30448 11.4105 3.05261 9.20373 3.05261C6.87628 3.05261 5.80737 4.46321 5.80737 5.41525C5.80737 6.10301 6.37632 6.42034 6.84179 6.42034C7.23384 6.42034 7.39352 6.17952 7.57838 5.90073C7.83244 5.51755 8.13407 5.06265 9.15193 5.06265C10.014 5.06265 10.7036 5.45066 10.7036 6.26167C10.7036 7.04076 10.0571 7.54833 9.51046 7.97756C9.38905 8.07289 9.27257 8.16436 9.16917 8.25408C8.66927 8.69486 8.0141 9.41776 8.0141 10.9341C8.0141 11.851 8.25547 12.1154 8.96223 12.1154C9.80703 12.1154 9.97941 11.7277 9.97941 11.3926ZM8.97959 16.0474C9.72085 16.0474 10.3071 15.4126 10.3071 14.6898C10.3071 13.9492 9.70361 13.3321 8.97959 13.3321C8.25558 13.3321 7.66933 13.9492 7.66933 14.6898C7.66933 15.4126 8.23834 16.0474 8.97959 16.0474Z" fill="white"/>
</svg>
