<svg width="225" height="225" viewBox="0 0 225 225" fill="none" xmlns="http://www.w3.org/2000/svg">
<g filter="url(#filter0_d)">
<path d="M112.5 198C160.825 198 200 158.825 200 110.5C200 62.1751 160.825 23 112.5 23C64.1751 23 25 62.1751 25 110.5C25 158.825 64.1751 198 112.5 198Z" fill="#F3F5F9"/>
<path d="M192.5 110.5C192.5 154.683 156.683 190.5 112.5 190.5C68.3172 190.5 32.5 154.683 32.5 110.5C32.5 66.3172 68.3172 30.5 112.5 30.5C156.683 30.5 192.5 66.3172 192.5 110.5Z" stroke="#00D9CD" stroke-width="15"/>
</g>
<path fill-rule="evenodd" clip-rule="evenodd" d="M112.5 198C116.642 198 120 194.642 120 190.5C120 186.358 116.642 183 112.5 183C108.358 183 105 186.358 105 190.5C105 194.642 108.358 198 112.5 198Z" fill="#00D9CD"/>
<path fill-rule="evenodd" clip-rule="evenodd" d="M112.5 51C124.926 51 135 40.9264 135 28.5C135 16.0736 124.926 6 112.5 6C100.074 6 90 16.0736 90 28.5C90 40.9264 100.074 51 112.5 51Z" fill="#00D9CD"/>
<path d="M119.433 23.5189C118.583 22.6871 117.21 22.7008 116.387 23.5592L110.367 29.5796L108.613 27.8904L108.58 27.858C107.737 27.0148 106.37 27.0148 105.527 27.858C104.684 28.7012 104.684 30.0683 105.527 30.9115L105.559 30.9439L108.808 34.1924C109.628 35.0481 110.991 35.0626 111.829 34.2245L111.861 34.1924L119.441 26.6127L119.457 26.5964C120.307 25.7469 120.291 24.3594 119.433 23.5189Z" fill="white"/>
<path d="M73.7039 117H78.5839V89.4H73.9039V90.16C73.9039 92.08 72.7839 93.12 70.9439 93.12H67.5839V96.88H73.7039V117ZM94.7773 117.4C102.177 117.4 105.657 110.08 105.657 103.24C105.657 96.36 102.097 88.96 94.4973 88.96C86.1373 88.96 83.5773 97.32 83.5773 103.2C83.5773 109.04 86.2173 117.4 94.7773 117.4ZM94.6573 112.72C90.1773 112.72 88.4573 107.6 88.4573 103.2C88.4573 98.76 90.1773 93.72 94.4973 93.72C98.8173 93.72 100.537 98.72 100.537 103.16C100.537 107.48 98.8573 112.72 94.6573 112.72ZM119.215 117.4C126.615 117.4 130.095 110.08 130.095 103.24C130.095 96.36 126.535 88.96 118.935 88.96C110.575 88.96 108.015 97.32 108.015 103.2C108.015 109.04 110.655 117.4 119.215 117.4ZM119.095 112.72C114.615 112.72 112.895 107.6 112.895 103.2C112.895 98.76 114.615 93.72 118.935 93.72C123.255 93.72 124.975 98.72 124.975 103.16C124.975 107.48 123.295 112.72 119.095 112.72ZM136.692 117.4H140.812L156.252 88.6H152.132L136.692 117.4ZM138.612 102C142.372 102 144.012 98.48 144.012 95.52C144.012 92.52 142.332 88.96 138.492 88.96C134.252 88.96 133.052 92.96 133.052 95.48C133.052 98 134.292 102 138.612 102ZM138.532 98.64C137.212 98.64 136.492 97.2 136.492 95.48C136.492 93.76 137.212 92.36 138.492 92.36C139.732 92.36 140.492 93.76 140.492 95.48C140.492 97.16 139.732 98.64 138.532 98.64ZM154.772 117.2C158.532 117.2 160.172 113.6 160.172 110.6C160.172 107.56 158.532 103.96 154.652 103.96C150.412 103.96 149.212 108.04 149.212 110.6C149.212 113.12 150.452 117.2 154.772 117.2ZM154.732 113.84C153.372 113.84 152.652 112.36 152.652 110.6C152.652 108.8 153.412 107.36 154.652 107.36C155.892 107.36 156.652 108.8 156.652 110.56C156.652 112.32 155.892 113.84 154.732 113.84Z" fill="#334356"/>
<path opacity="0.6" d="M82.0991 138H89.8271V136.848H84.0191C84.0191 136.848 85.3471 135.984 86.6751 134.688C87.9711 133.408 89.2831 131.712 89.2831 130.048C89.2831 128.096 87.9231 126.816 86.0031 126.816C83.8591 126.816 82.5311 128.624 82.5311 130.528L83.8271 130.64C83.8751 129.408 84.4191 127.936 86.0191 127.936C87.3631 127.936 87.9391 128.88 87.9391 130.096C87.9391 131.344 86.9951 132.672 85.8591 133.824C84.1791 135.536 82.0991 136.832 82.0991 136.832V138ZM95.2609 138.16C97.9329 138.16 99.2929 135.344 99.2929 132.512C99.2929 129.648 97.9169 126.784 95.1489 126.784C92.1089 126.784 91.1009 130.016 91.1009 132.48C91.1009 134.928 92.1249 138.16 95.2609 138.16ZM95.2129 136.928C93.0849 136.928 92.4129 134.384 92.4129 132.48C92.4129 130.56 93.0849 128.048 95.1489 128.048C97.2129 128.048 97.8849 130.544 97.8849 132.464C97.8849 134.32 97.2289 136.928 95.2129 136.928ZM108.274 138.16C109.362 138.16 110.162 137.696 110.674 136.96V138H111.954V126.96H110.674V131.232C110.162 130.496 109.362 130.032 108.274 130.032C106.226 130.032 105.106 131.856 105.106 134.096C105.106 136.336 106.226 138.16 108.274 138.16ZM108.594 136.992C107.074 136.992 106.386 135.664 106.386 134.096C106.386 132.544 107.074 131.216 108.594 131.216C110.114 131.216 110.754 132.544 110.754 134.096C110.754 135.664 110.114 136.992 108.594 136.992ZM117.907 138.096C119.139 138.096 120.067 137.76 120.931 136.848L120.067 136.144C119.443 136.784 118.787 136.96 117.891 136.96C116.435 136.96 115.683 135.84 115.667 134.528H121.091C121.091 134.528 121.123 134.32 121.123 134.208C121.123 132.064 120.355 130.096 117.763 130.096C115.443 130.096 114.323 132.032 114.323 134.144C114.323 136.272 115.507 138.096 117.907 138.096ZM115.667 133.504C115.731 132.256 116.387 131.216 117.763 131.216C119.187 131.216 119.875 132.16 119.907 133.504H115.667ZM126.724 138H134.452V136.848H128.644C128.644 136.848 129.972 135.984 131.3 134.688C132.596 133.408 133.908 131.712 133.908 130.048C133.908 128.096 132.548 126.816 130.628 126.816C128.484 126.816 127.156 128.624 127.156 130.528L128.452 130.64C128.5 129.408 129.044 127.936 130.644 127.936C131.988 127.936 132.564 128.88 132.564 130.096C132.564 131.344 131.62 132.672 130.484 133.824C128.804 135.536 126.724 136.832 126.724 136.832V138ZM139.886 138.16C142.558 138.16 143.918 135.344 143.918 132.512C143.918 129.648 142.542 126.784 139.774 126.784C136.734 126.784 135.726 130.016 135.726 132.48C135.726 134.928 136.75 138.16 139.886 138.16ZM139.838 136.928C137.71 136.928 137.038 134.384 137.038 132.48C137.038 130.56 137.71 128.048 139.774 128.048C141.838 128.048 142.51 130.544 142.51 132.464C142.51 134.32 141.854 136.928 139.838 136.928Z" fill="#334356"/>
<g clip-path="url(#clip0)">
<g filter="url(#filter1_d)">
<rect x="58" y="161" width="110" height="53" rx="26.5" fill="white"/>
</g>
<path d="M82.6088 193.96H84.4088V189.8H88.8688V188H84.4088V183.84H82.6088V188H78.1488V189.8H82.6088V193.96ZM96.7385 195.2C99.4985 195.2 101.799 192.92 101.799 190.3C101.799 187.68 99.6785 185.52 97.0985 185.52C96.3985 185.52 95.7185 185.66 94.9585 186.06L95.4585 183.48H101.179V181.2H93.4985L92.1585 188.46L94.3985 189.02C94.8985 188.22 95.8385 187.74 96.7385 187.74C98.3585 187.74 99.2785 188.92 99.2785 190.28C99.2785 191.62 98.2385 192.96 96.7385 192.96C95.0585 192.96 94.3185 191.62 94.0585 190.36L91.7585 191C92.2585 193.32 94.2585 195.2 96.7385 195.2ZM109.189 195.2C112.889 195.2 114.629 191.54 114.629 188.12C114.629 184.68 112.849 180.98 109.049 180.98C104.869 180.98 103.589 185.16 103.589 188.1C103.589 191.02 104.909 195.2 109.189 195.2ZM109.129 192.86C106.889 192.86 106.029 190.3 106.029 188.1C106.029 185.88 106.889 183.36 109.049 183.36C111.209 183.36 112.069 185.86 112.069 188.08C112.069 190.24 111.229 192.86 109.129 192.86ZM122.399 195H125.359L128.699 189.76L132.079 195H135.039L130.419 188.1L135.019 181.2H132.059L128.719 186.52L125.379 181.2H122.419L127.019 188.1L122.399 195ZM137.631 195H140.091V189.26H141.951C144.771 189.26 146.831 187.84 146.831 185.26C146.831 182.68 144.771 181.2 141.951 181.2H137.631V195ZM140.091 186.94V183.52H141.951C143.631 183.52 144.371 184.16 144.371 185.26C144.371 186.36 143.651 186.94 141.951 186.94H140.091Z" fill="#00D9CD"/>
</g>
<defs>
<filter id="filter0_d" x="0" y="0" width="225" height="225" filterUnits="userSpaceOnUse" color-interpolation-filters="sRGB">
<feFlood flood-opacity="0" result="BackgroundImageFix"/>
<feColorMatrix in="SourceAlpha" type="matrix" values="0 0 0 0 0 0 0 0 0 0 0 0 0 0 0 0 0 0 127 0"/>
<feOffset dy="2"/>
<feGaussianBlur stdDeviation="12.5"/>
<feColorMatrix type="matrix" values="0 0 0 0 0 0 0 0 0 0.849496 0 0 0 0 0.805081 0 0 0 0.237462 0"/>
<feBlend mode="normal" in2="BackgroundImageFix" result="effect1_dropShadow"/>
<feBlend mode="normal" in="SourceGraphic" in2="effect1_dropShadow" result="shape"/>
</filter>
<filter id="filter1_d" x="39" y="154" width="148" height="91" filterUnits="userSpaceOnUse" color-interpolation-filters="sRGB">
<feFlood flood-opacity="0" result="BackgroundImageFix"/>
<feColorMatrix in="SourceAlpha" type="matrix" values="0 0 0 0 0 0 0 0 0 0 0 0 0 0 0 0 0 0 127 0"/>
<feOffset dy="12"/>
<feGaussianBlur stdDeviation="9.5"/>
<feColorMatrix type="matrix" values="0 0 0 0 0.236882 0 0 0 0 0.50135 0 0 0 0 0.817921 0 0 0 0.0851449 0"/>
<feBlend mode="normal" in2="BackgroundImageFix" result="effect1_dropShadow"/>
<feBlend mode="normal" in="SourceGraphic" in2="effect1_dropShadow" result="shape"/>
</filter>
<clipPath id="clip0">
<rect width="110" height="53" fill="white" transform="translate(58 161)"/>
</clipPath>
</defs>
</svg>
