<svg width="26" height="25" viewBox="0 0 26 25" fill="none" xmlns="http://www.w3.org/2000/svg">
<path
    d="M13.4331 18.4401L13.4359 18.4702L13.4422 18.4997L14.3797 22.869L14.3831 22.8851L14.3876 22.9009C14.4204 23.0161 14.4372 23.1347 14.4377 23.2538C14.4372 23.9354 13.8457 24.5 12.9373 24.5C12.0295 24.5 11.4384 23.936 11.4375 23.2545C11.4383 23.1563 11.4503 23.0584 11.4734 22.9625L11.4736 22.9626L11.4763 22.9497L12.4486 18.3912C12.475 18.2973 12.5333 18.2108 12.6187 18.1469C12.7069 18.0809 12.8179 18.0438 12.934 18.0446V18.0446H12.9373C13.226 18.0446 13.4156 18.2475 13.4331 18.4401Z"
    stroke="#334356"
  />
<path
    d="M20.9833 20.8212L20.9936 20.8298L21.0042 20.8379C21.149 20.9477 21.2486 21.1488 21.2498 21.4043C21.251 21.6568 21.1536 21.9126 20.9697 22.0911C20.7843 22.2627 20.4995 22.362 20.197 22.3593C19.888 22.3566 19.6433 22.2495 19.5178 22.1141L19.5075 22.1029L19.4966 22.0925C19.4385 22.037 19.3856 21.9771 19.3383 21.9134L19.334 21.9076L19.3295 21.9019L16.5317 18.3519C16.5108 18.3162 16.5031 18.2768 16.5076 18.239C16.5126 18.1972 16.533 18.1551 16.5698 18.1213L16.5698 18.1214L16.5746 18.1168C16.6533 18.0426 16.781 17.9977 16.9943 18.1235L20.7079 20.629L20.7216 20.6382L20.7359 20.6465C20.8237 20.6977 20.9065 20.7562 20.9833 20.8212Z"
    stroke="#334356"
  />
<path
    d="M19.6475 16.5H24.7823C24.9639 16.5 25.1252 16.5721 25.2513 16.7279C25.383 16.8906 25.5 17.1773 25.5 17.6306C25.5 17.8601 25.3674 18.1055 25.1317 18.2883C24.8971 18.4703 24.647 18.5242 24.4847 18.4901L19.6681 16.8866C19.6034 16.8629 19.5651 16.8312 19.5434 16.8023C19.5236 16.776 19.5 16.7294 19.5 16.6403C19.5 16.5984 19.5153 16.5678 19.5413 16.5434C19.5714 16.5152 19.6118 16.5 19.6475 16.5Z"
    stroke="#334356"
  />
<path
    d="M6.37474 16.8854L6.37474 16.8854L6.3718 16.8864L1.48713 18.4911C1.33416 18.5229 1.0951 18.4689 0.86502 18.2794C0.634164 18.0892 0.5 17.8318 0.5 17.5935C0.5 17.2756 0.603968 16.9822 0.754793 16.7782C0.908269 16.5706 1.07124 16.5 1.18946 16.5H6.31251C6.37818 16.5 6.43115 16.5235 6.46141 16.5498C6.48535 16.5707 6.5 16.5956 6.5 16.6399C6.5 16.7747 6.47339 16.8231 6.46622 16.834C6.46614 16.8341 6.46605 16.8343 6.46596 16.8344C6.46283 16.8393 6.44835 16.8617 6.37474 16.8854Z"
    stroke="#334356"
  />
<path
    d="M9.02256 18.1206L9.03194 18.1143L9.04103 18.1076C9.09811 18.0654 9.17144 18.0424 9.2479 18.046C9.32433 18.0496 9.39423 18.0792 9.44585 18.1257L9.4466 18.1264C9.48912 18.1645 9.50287 18.2011 9.50621 18.2311C9.50947 18.2603 9.5045 18.3012 9.47761 18.3487L6.68118 21.8742L6.67387 21.8834L6.667 21.893C6.62421 21.9525 6.57519 22.008 6.52055 22.0586C6.32217 22.2389 6.05664 22.342 5.77756 22.342C5.49792 22.342 5.23188 22.2385 5.03337 22.0575L5.03338 22.0575L5.03054 22.055C4.93958 21.9733 4.86814 21.8754 4.8197 21.768C4.77128 21.6607 4.74658 21.5456 4.74658 21.4298C4.74658 21.314 4.77128 21.199 4.8197 21.0916C4.86792 20.9848 4.93891 20.8873 5.02927 20.8059C5.0982 20.745 5.17442 20.6917 5.25656 20.6471L5.27719 20.6359L5.29667 20.6228L9.02256 18.1206Z"
    stroke="#334356"
  />
<path
    d="M19.0001 5.81461C19.0001 2.93381 16.3633 1.20327 13.9537 1.00156C13.8956 0.996681 13.8372 1.00327 13.7819 1.02093C13.7266 1.03858 13.6756 1.06694 13.632 1.10426C13.5885 1.14157 13.5532 1.18707 13.5285 1.23798C13.5038 1.28888 13.49 1.34412 13.4881 1.40032C13.321 5.33103 7.62849 7.12519 7.06653 10.6416C6.69153 12.9897 7.95849 14.3846 8.90456 15.0782C9.00474 15.1516 9.1205 15.2029 9.24357 15.2281C9.36664 15.2534 9.49397 15.2521 9.61646 15.2243C9.73895 15.1966 9.85357 15.143 9.95211 15.0675C10.0507 14.992 10.1307 14.8964 10.1865 14.7875C11.3919 12.4156 14.1685 11.5038 16.0644 10.3427C18.3615 8.9359 19.0001 7.42361 19.0001 5.81461Z"
    stroke="#334356"
    stroke-miterlimit="10"
    stroke-linecap="round"
  />
<path
    d="M12.1429 4.29463C11.4561 3.10507 10.5084 2.69131 8.97357 2.65873C8.92001 2.65584 8.86738 2.67316 8.82679 2.70703C8.78621 2.7409 8.76085 2.78868 8.75607 2.84026C8.70518 4.61012 7 5.1599 7 6.62357C7 7.62538 7.28875 8.12345 7.91929 8.65513"
    stroke="#334356"
    stroke-miterlimit="10"
    stroke-linecap="round"
  />
<path
    d="M18.1669 8.59042C18.6276 9.33053 18.9999 10.1462 18.9999 11.073C18.9999 13.7893 16.7247 15.8881 13.9181 15.8881C12.6192 15.889 11.3697 15.4076 10.4285 14.5434"
    stroke="#334356"
    stroke-miterlimit="10"
    stroke-linecap="round"
  />
</svg>
