<svg width="26" height="25" viewBox="0 0 26 25" fill="none" xmlns="http://www.w3.org/2000/svg">
<path
    d="M12.9373 18.5446C12.9384 18.5446 12.9395 18.5446 12.9406 18.5446L12.9406 18.5456L12.9533 18.6046L13.8908 22.9739L13.8977 23.0061L13.9067 23.0377C13.9269 23.1087 13.9373 23.1816 13.9377 23.2546C13.9367 23.5876 13.6474 24 12.9373 24C12.2286 24 11.9393 23.5891 11.9375 23.256C11.9381 23.1968 11.9455 23.1378 11.9595 23.0797L11.9626 23.0669L11.9653 23.054L12.9271 18.5447C12.9283 18.5446 12.9295 18.5445 12.9308 18.5446L12.9308 18.5446H12.9373ZM13.9311 18.3949C13.8877 17.9175 13.4564 17.5446 12.9373 17.5446C12.7136 17.5431 12.4959 17.6143 12.319 17.7466C12.1422 17.8789 12.0166 18.0648 11.9623 18.2743L13.9311 18.3949Z"
    stroke="#334356"
    stroke-width="2"
  />
<path
    d="M20.6604 21.2029L20.6808 21.2201L20.7021 21.2363L20.7021 21.2363C20.7028 21.2368 20.7126 21.2441 20.7243 21.2704C20.7371 21.2991 20.7495 21.3454 20.7498 21.4067C20.7504 21.5335 20.7008 21.6525 20.6258 21.7281C20.5501 21.7953 20.3992 21.8611 20.2014 21.8594C20.107 21.8585 20.0258 21.8417 19.966 21.819C19.937 21.808 19.9163 21.7968 19.9027 21.7881C19.8898 21.7797 19.8847 21.7744 19.8846 21.7742L19.8846 21.7742L19.8639 21.7519L19.842 21.731C19.8043 21.6949 19.7701 21.6562 19.7398 21.6154L19.7312 21.6038L19.7222 21.5924L17.9967 19.4029L20.4283 21.0435L20.4556 21.0619L20.4841 21.0785C20.547 21.1152 20.606 21.1568 20.6604 21.2029ZM16.7144 18.5413C16.7137 18.5411 16.7133 18.5409 16.7133 18.5409C16.7133 18.5409 16.7137 18.541 16.7144 18.5413Z"
    stroke="#334356"
    stroke-width="2"
  />
<path
    d="M24.594 17.9995L21.5917 17H24.7823C24.8138 17 24.832 17.0046 24.8626 17.0424C24.9045 17.0942 25 17.26 25 17.6306C25 17.6682 24.9718 17.7796 24.8253 17.8932C24.7589 17.9447 24.6913 17.9764 24.6384 17.9909C24.6179 17.9966 24.6032 17.9987 24.594 17.9995Z"
    stroke="#334356"
    stroke-width="2"
  />
<path
    d="M4.42395 17L1.38443 17.9985C1.37802 17.9974 1.36918 17.9955 1.35776 17.9921C1.31191 17.9784 1.24829 17.9473 1.18296 17.8935C1.0388 17.7747 1 17.649 1 17.5935C1 17.3787 1.07189 17.1903 1.15684 17.0754C1.18845 17.0327 1.21249 17.0106 1.22669 17H4.42395ZM1.24127 16.9913C1.24132 16.9915 1.23954 16.9925 1.23577 16.9939C1.23934 16.9917 1.24123 16.9911 1.24127 16.9913Z"
    stroke="#334356"
    stroke-width="2"
  />
<path
    d="M5.57543 21.0379L7.99556 19.4126L6.28945 21.5635L6.27483 21.5819L6.26109 21.601C6.23837 21.6326 6.21212 21.6625 6.18251 21.6902C6.07795 21.7844 5.93365 21.842 5.77756 21.842C5.62029 21.842 5.47501 21.7836 5.37026 21.6881L5.37028 21.688L5.3646 21.6829C5.3246 21.647 5.29494 21.6056 5.27546 21.5624C5.25602 21.5193 5.24658 21.4743 5.24658 21.4298C5.24658 21.3854 5.25602 21.3403 5.27546 21.2973C5.29455 21.2549 5.32343 21.2143 5.36224 21.1789C5.4022 21.1439 5.44674 21.1128 5.49522 21.0864L5.53646 21.064L5.57543 21.0379Z"
    stroke="#334356"
    stroke-width="2"
  />
<path
    d="M19.0001 5.81461C19.0001 2.93381 16.3633 1.20327 13.9537 1.00156C13.8956 0.996681 13.8372 1.00327 13.7819 1.02093C13.7266 1.03858 13.6756 1.06694 13.632 1.10426C13.5885 1.14157 13.5532 1.18707 13.5285 1.23798C13.5038 1.28888 13.49 1.34412 13.4881 1.40032C13.321 5.33103 7.62849 7.12519 7.06653 10.6416C6.69153 12.9897 7.95849 14.3846 8.90456 15.0782C9.00474 15.1516 9.1205 15.2029 9.24357 15.2281C9.36664 15.2534 9.49397 15.2521 9.61646 15.2243C9.73895 15.1966 9.85357 15.143 9.95211 15.0675C10.0507 14.992 10.1307 14.8964 10.1865 14.7875C11.3919 12.4156 14.1685 11.5038 16.0644 10.3427C18.3615 8.9359 19.0001 7.42362 19.0001 5.81461Z"
    stroke="#334356"
    stroke-width="2"
    stroke-miterlimit="10"
    stroke-linecap="round"
  />
<path
    d="M12.1429 4.29463C11.4561 3.10507 10.5084 2.69131 8.97357 2.65873C8.92001 2.65584 8.86738 2.67316 8.82679 2.70703C8.78621 2.7409 8.76085 2.78868 8.75607 2.84026C8.70518 4.61012 7 5.1599 7 6.62357C7 7.62538 7.28875 8.12345 7.91929 8.65513"
    stroke="#334356"
    stroke-width="2"
    stroke-miterlimit="10"
    stroke-linecap="round"
  />
<path
    d="M18.1669 8.59042C18.6276 9.33053 18.9999 10.1462 18.9999 11.073C18.9999 13.7893 16.7247 15.8881 13.9181 15.8881C12.6192 15.889 11.3697 15.4076 10.4285 14.5434"
    stroke="#334356"
    stroke-width="2"
    stroke-miterlimit="10"
    stroke-linecap="round"
  />
</svg>
