<svg width="22" height="22" viewBox="0 0 22 22" xmlns="http://www.w3.org/2000/svg">
<path d="M20.8455 1.10001H13.2V5.50001H20.8455C21.483 5.50001 22 5.24376 22 4.92769V1.67233C22 1.35625 21.483 1.10001 20.8455 1.10001V1.10001Z"/>
<path fill-rule="evenodd" clip-rule="evenodd" d="M18.4291 10.3461H20.8461C21.3804 10.3461 22 10.6349 22 10.9912V14.3L20.3722 17.1023C20.1932 17.4104 19.8638 17.6 19.5075 17.6H2.49251C2.13618 17.6 1.80678 17.4104 1.62781 17.1023L0 14.3L0.0532913 10.9912C0.0532913 10.6349 0.486506 10.3461 1.02087 10.3461H3.4378C3.97216 10.3461 4.40537 10.6349 4.40537 10.9912V12.8048H8.75746V10.9912C8.75746 10.6349 9.19067 10.3461 9.72503 10.3461H9.96589V0.645049C9.96589 0.28881 10.3991 0 10.9335 0C11.4678 0 11.901 0.28881 11.901 0.645049V10.3461H12.1419C12.6763 10.3461 13.1095 10.6349 13.1095 10.9912V12.8048H17.4616V10.9912C17.4616 10.6349 17.8948 10.3461 18.4291 10.3461Z"/>
<path d="M2.19995 19.7C2.19995 19.1477 2.64767 18.7 3.19995 18.7H18.8C19.3522 18.7 19.8 19.1477 19.8 19.7V21C19.8 21.5523 19.3522 22 18.8 22H3.19995C2.64767 22 2.19995 21.5523 2.19995 21V19.7Z"/>
</svg>
