<svg width="24" height="20" viewBox="0 0 24 20" xmlns="http://www.w3.org/2000/svg">
<g clip-path="url(#clip0)">
<path d="M18.9505 1H12V5H18.9505C19.5301 5 20 4.76705 20 4.47971V1.52029C20 1.23295 19.5301 1 18.9505 1V1Z"/>
<path fill-rule="evenodd" clip-rule="evenodd" d="M16.7538 9.40556H18.951C19.4367 9.40556 20 9.66811 20 9.99197V13L18.5465 15.5023C18.3675 15.8104 18.0381 16 17.6818 16H2.31824C1.96192 16 1.63252 15.8104 1.45354 15.5023L0 13L0.0484467 9.99197C0.0484467 9.66811 0.442279 9.40556 0.928059 9.40556H3.12527C3.61105 9.40556 4.00489 9.66811 4.00489 9.99197V11.6407H7.96132V9.99197C7.96132 9.66811 8.35515 9.40556 8.84094 9.40556H9.0599V0.586408C9.0599 0.262554 9.45373 0 9.93951 0C10.4253 0 10.8191 0.262554 10.8191 0.586408V9.40556H11.0381C11.5239 9.40556 11.9177 9.66811 11.9177 9.99197V11.6407H15.8741V9.99197C15.8741 9.66811 16.268 9.40556 16.7538 9.40556Z"/>
<path d="M2 18C2 17.4477 2.44772 17 3 17H17C17.5523 17 18 17.4477 18 18V19C18 19.5523 17.5523 20 17 20H3C2.44772 20 2 19.5523 2 19V18Z" />
</g>
<defs>
<clipPath id="clip0">
<rect width="24" height="20"/>
</clipPath>
</defs>
</svg>
