<svg width="35" height="35" viewBox="0 0 35 35" fill="none" xmlns="http://www.w3.org/2000/svg">
<path d="M33.9068 17.3386C33.9068 22.6004 31.6149 27.3144 27.9966 30.4941C27.2043 31.1911 26.3483 31.8139 25.4383 32.3525C24.7415 32.7658 24.0129 33.1295 23.2579 33.4388C22.4857 33.7551 21.6857 34.0156 20.8623 34.2137C19.9752 34.4281 19.0618 34.5711 18.1269 34.6362C17.7394 34.6638 17.3477 34.6773 16.9533 34.6773C16.559 34.6773 16.1672 34.6638 15.7798 34.6362C14.8449 34.5711 13.9308 34.4281 13.0437 34.2137C12.2203 34.0156 11.4203 33.7551 10.6488 33.4388C9.89382 33.1295 9.16522 32.7657 8.46837 32.3525C7.55844 31.8139 6.70175 31.1905 5.90944 30.4941C2.29115 27.3136 0 22.5997 0 17.3386C0 7.76277 7.59026 0 16.9533 0C26.3164 0 33.9068 7.7627 33.9068 17.3386Z" fill="#AEB8FF"/>
<path d="M32.9772 23.0755C30.6785 29.8631 24.3725 34.7363 16.9539 34.7363C14.2358 34.7363 11.6672 34.0824 9.3899 32.9197C5.88709 26.0741 3.08667 18.8661 1.03774 11.412C0.693853 10.1621 0.371377 8.90457 0.0703818 7.6413C-0.25623 6.27118 0.585917 4.89397 1.93319 4.5918C3.56278 4.22665 5.19171 3.86075 6.8213 3.49486C11.371 2.4744 15.9201 1.45319 20.4698 0.432663C20.6684 0.388111 20.8676 0.343492 21.0662 0.29894C21.3354 0.238764 21.6046 0.177907 21.8745 0.1178C22.6329 -0.0520153 23.3857 0.155324 23.947 0.620967C24.3497 0.95357 24.6535 1.41928 24.7884 1.97266C24.7925 1.98965 24.7966 2.00732 24.8015 2.02431C25.0949 3.22318 25.4132 4.4142 25.7565 5.59677C26.173 7.03054 26.6256 8.45162 27.1141 9.85926C28.698 14.426 30.6598 18.847 32.9772 23.0755Z" fill="white"/>
<path d="M25.7564 5.59677L19.0837 24.4824L17.6458 16.709L21.0662 0.29894C21.3353 0.238764 21.6045 0.177907 21.8744 0.1178C22.6329 -0.0520153 23.3857 0.155324 23.9469 0.620967C24.3496 0.95357 24.6534 1.41928 24.7883 1.97266C24.7925 1.98965 24.7966 2.00732 24.8015 2.02431C25.0949 3.22311 25.4131 4.4142 25.7564 5.59677Z" fill="#E0DDFF"/>
<path d="M32.9771 23.0756C30.6783 29.8631 24.3724 34.7364 16.9537 34.7364C14.2356 34.7364 11.667 34.0824 9.38976 32.9197C8.65001 31.4746 7.94215 30.0132 7.26611 28.5369C7.94008 29.0182 8.64934 29.4505 9.38976 29.8285C11.667 30.9913 14.2356 31.6452 16.9537 31.6452C23.7102 31.6452 29.5442 27.6028 32.2678 21.7536C32.5003 22.1966 32.737 22.6368 32.9771 23.0756Z" fill="#E0DDFF"/>
<path d="M5.32813 12.817C4.88251 12.817 4.47057 12.5212 4.33495 12.0624C4.16911 11.5011 4.47938 10.9087 5.02814 10.7391L22.8811 5.21902C23.43 5.04941 24.0091 5.3668 24.175 5.92796C24.3408 6.48919 24.0305 7.08166 23.4818 7.25127L5.62886 12.7713C5.52873 12.8022 5.4276 12.817 5.32813 12.817Z" fill="#E0DDFF"/>
<path d="M7.9582 19.1863C7.53899 19.1863 7.1442 18.9247 6.98717 18.5C6.78444 17.9516 7.05468 17.3389 7.59089 17.1315L24.0599 10.7622C24.5959 10.5548 25.1951 10.8313 25.3979 11.3797C25.6006 11.9281 25.3303 12.5407 24.7941 12.7481L8.32517 19.1174C8.20423 19.1641 8.08015 19.1863 7.9582 19.1863Z" fill="#E0DDFF"/>
<path d="M11.0381 26.051C10.6476 26.051 10.2736 25.8246 10.0972 25.439C9.85428 24.9079 10.0783 24.276 10.5976 24.0276L20.8042 19.1444C21.3234 18.896 21.9413 19.1251 22.1842 19.6562C22.4271 20.1873 22.2031 20.8192 21.6838 21.0676L11.4772 25.9508C11.335 26.0188 11.1853 26.051 11.0381 26.051Z" fill="#E0DDFF"/>
<path d="M26.8946 19.2607L23.0844 21.8081L19.0838 24.4826L18.9471 19.5964L18.8171 14.9429L20.674 15.026L25.6656 15.2511L26.8946 19.2607Z" fill="#F3F2FF"/>
<path d="M19.0838 24.4826L18.9471 19.5964L18.8171 14.9429L20.674 15.026L21.4567 16.8638L19.0838 24.4826Z" fill="#E8E8FF"/>
<path d="M33.9761 5.40422L32.3509 8.58437L24.2734 4.26648L25.8987 1.08632C26.3011 0.298925 27.2513 -0.00563625 28.0211 0.405835L33.3107 3.23347C34.0806 3.64508 34.3785 4.61689 33.9761 5.40422Z" fill="#00BAB0"/>
<path d="M33.9762 5.40417L32.3509 8.58433L26.7396 5.58476L28.3649 2.40461C28.7673 1.61728 29.7175 1.31265 30.4873 1.72412L33.3109 3.23342C34.0807 3.64503 34.3785 4.61684 33.9762 5.40417Z" fill="#00D9CD"/>
<path d="M32.3137 8.65733L26.8948 19.2606C25.7796 18.6645 24.4027 19.1059 23.8199 20.2464C24.4027 19.1059 23.9712 17.6977 22.8561 17.1016C21.7409 16.5055 20.3641 16.9469 19.7812 18.0873C20.3641 16.9469 19.9325 15.5387 18.8174 14.9426L24.2364 4.33929L32.3137 8.65733Z" fill="#5468FF"/>
<path d="M32.3136 8.65737L26.8946 19.2607C25.7795 18.6646 24.4026 19.1059 23.8198 20.2464C24.4026 19.1059 23.9711 17.6977 22.856 17.1016L28.2749 6.49835L32.3136 8.65737Z" fill="#99A5FF"/>
<path d="M30.2942 7.57796L23.8197 20.2465C24.4025 19.1061 23.971 17.6979 22.8559 17.1018C21.7407 16.5057 20.3639 16.947 19.781 18.0875L26.2555 5.41895L30.2942 7.57796Z" fill="#8492FF"/>
<path d="M32.8138 8.92485C32.6897 9.1676 32.4818 9.33564 32.2457 9.41137C32.0095 9.4871 31.7449 9.47039 31.5077 9.34355L24.1451 5.40786C23.6712 5.15454 23.4879 4.55681 23.7356 4.07206C23.8597 3.82931 24.0676 3.66127 24.3037 3.58554C24.5399 3.50981 24.8044 3.52653 25.0417 3.65336L32.4043 7.58912C32.8783 7.84237 33.0615 8.44017 32.8138 8.92485Z" fill="#E8E8FF"/>
<path d="M32.8139 8.92489C32.6898 9.16763 32.4819 9.33567 32.2458 9.41141C32.0096 9.48714 31.745 9.47042 31.5077 9.34359L26.3611 6.59237C25.8872 6.33905 25.704 5.74132 25.9517 5.25657C26.0758 5.01382 26.2836 4.84578 26.5198 4.77005C26.7559 4.69432 27.0205 4.71104 27.2578 4.83787L32.4044 7.58909C32.8784 7.84241 33.0616 8.44021 32.8139 8.92489Z" fill="white"/>
<path d="M23.0845 21.8081L19.0838 24.4825L18.9471 19.5965C19.476 19.5803 20.0132 19.6545 20.5348 19.8253C20.7938 19.9097 21.0487 20.0182 21.2975 20.1511C22.0488 20.5527 22.6519 21.1301 23.0845 21.8081Z" fill="#344356"/>
<path d="M19.0838 24.4826L18.9471 19.5965C19.476 19.5804 20.0132 19.6545 20.5348 19.8254L19.0838 24.4826Z" fill="black"/>
</svg>
