<svg width="48" height="57" viewBox="0 0 48 57" fill="none" xmlns="http://www.w3.org/2000/svg">
<path fill-rule="evenodd" clip-rule="evenodd" d="M5 14C5 9.58172 8.58172 6 13 6H35C39.4183 6 43 9.58172 43 14V35.6705C43 38.4806 41.5256 41.0846 39.116 42.5304L28.116 49.1304C25.5825 50.6505 22.4175 50.6505 19.884 49.1304L8.88404 42.5304C6.4744 41.0846 5 38.4806 5 35.6705V14Z" fill="url(#paint0_linear)"/>
<mask id="mask0" mask-type="alpha" maskUnits="userSpaceOnUse" x="5" y="6" width="38" height="45">
<path fill-rule="evenodd" clip-rule="evenodd" d="M5 14C5 9.58172 8.58172 6 13 6H35C39.4183 6 43 9.58172 43 14V35.6705C43 38.4806 41.5256 41.0846 39.116 42.5304L28.116 49.1304C25.5825 50.6505 22.4175 50.6505 19.884 49.1304L8.88404 42.5304C6.4744 41.0846 5 38.4806 5 35.6705V14Z" fill="white"/>
</mask>
<g mask="url(#mask0)">
<g filter="url(#filter0_d)">
<path d="M41.6174 3.78647L36.5641 0.478993C35.2135 -0.405042 33.3973 -0.0301414 32.5063 1.3131L23.4102 14.4423C23.1909 14.7588 23.1749 15.1736 23.3693 15.5059L28.9074 24.9813C29.0871 25.2887 29.412 25.492 29.768 25.494C29.7704 25.494 29.7728 25.494 29.7752 25.494C30.1687 25.494 30.5555 25.3059 30.7941 24.9563L42.4535 7.87419L42.4668 7.85428C43.3541 6.49862 42.973 4.6738 41.6174 3.78647Z" fill="#FF3636"/>
<path d="M30.7909 23.5622L15.4945 1.3737C15.0644 0.724576 14.4085 0.27968 13.6456 0.120359C12.8772 -0.0400304 12.0925 0.108268 11.4358 0.538112L6.38251 3.84568C5.02685 4.73308 4.64586 6.5579 5.53319 7.91357L5.5424 7.92771L17.1639 24.6669C17.294 24.8543 17.5043 24.9701 17.7323 24.9798L29.7776 25.494C30.0188 25.494 30.2624 25.4233 30.4759 25.2761C31.0361 24.8899 31.1772 24.1225 30.7909 23.5622Z" fill="#FF712F"/>
<path d="M34.5115 31.5937C34.5115 37.3936 29.7927 42.1124 23.9928 42.1124C18.1929 42.1124 13.4741 37.3937 13.4741 31.5937C13.4741 25.793 18.1929 21.0742 23.9928 21.0742C29.7927 21.0742 34.5115 25.793 34.5115 31.5937Z" fill="#FFD561"/>
<path d="M29.4404 31.3787L27.7596 33.0168L28.1564 35.3293C28.2501 35.8732 28.0307 36.4121 27.5846 36.7358C27.1377 37.0602 26.5577 37.1022 26.0697 36.845L23.9929 35.7532L21.9162 36.8458C21.7042 36.9567 21.4742 37.0126 21.2458 37.0126C20.9484 37.0126 20.6543 36.9189 20.4021 36.7358C19.9552 36.4121 19.7367 35.8732 19.8294 35.3293L20.2262 33.0168L18.5462 31.3795C18.1511 30.9942 18.0114 30.4298 18.1823 29.9049C18.3524 29.3808 18.7968 29.0053 19.3431 28.9264L21.6647 28.5888L22.7031 26.4849C22.9471 25.9903 23.4417 25.6831 23.9929 25.6831C24.2681 25.6831 24.5302 25.7603 24.7528 25.8984C24.9763 26.0372 25.1603 26.2376 25.2827 26.4849L26.3211 28.5888L28.6427 28.9264C29.189 29.0053 29.6334 29.3807 29.8035 29.9049C29.9744 30.429 29.8347 30.9942 29.4404 31.3787Z" fill="#FFF2D4"/>
</g>
</g>
<defs>
<filter id="filter0_d" x="0.0541992" y="0" width="47.8915" height="56.1124" filterUnits="userSpaceOnUse" color-interpolation-filters="sRGB">
<feFlood flood-opacity="0" result="BackgroundImageFix"/>
<feColorMatrix in="SourceAlpha" type="matrix" values="0 0 0 0 0 0 0 0 0 0 0 0 0 0 0 0 0 0 127 0"/>
<feOffset dy="9"/>
<feGaussianBlur stdDeviation="2.5"/>
<feColorMatrix type="matrix" values="0 0 0 0 1 0 0 0 0 0.462843 0 0 0 0 0.462843 0 0 0 0.597574 0"/>
<feBlend mode="normal" in2="BackgroundImageFix" result="effect1_dropShadow"/>
<feBlend mode="normal" in="SourceGraphic" in2="effect1_dropShadow" result="shape"/>
</filter>
<linearGradient id="paint0_linear" x1="5" y1="6" x2="5" y2="51.6" gradientUnits="userSpaceOnUse">
<stop stop-color="#FFCA00"/>
<stop offset="1" stop-color="#FF9C52"/>
</linearGradient>
</defs>
</svg>
