<svg width="46" height="54" viewBox="0 0 46 54" fill="none" xmlns="http://www.w3.org/2000/svg">
<path fill-rule="evenodd" clip-rule="evenodd" d="M4 15C4 10.5817 7.58172 7 12 7H34C38.4183 7 42 10.5817 42 15V36.6705C42 39.4806 40.5256 42.0846 38.116 43.5304L27.116 50.1304C24.5825 51.6505 21.4175 51.6505 18.884 50.1304L7.88404 43.5304C5.4744 42.0846 4 39.4806 4 36.6705V15Z" fill="url(#paint0_linear)"/>
<mask id="mask0" mask-type="alpha" maskUnits="userSpaceOnUse" x="4" y="7" width="38" height="45">
<path fill-rule="evenodd" clip-rule="evenodd" d="M4 15C4 10.5817 7.58172 7 12 7H34C38.4183 7 42 10.5817 42 15V36.6705C42 39.4806 40.5256 42.0846 38.116 43.5304L27.116 50.1304C24.5825 51.6505 21.4175 51.6505 18.884 50.1304L7.88404 43.5304C5.4744 42.0846 4 39.4806 4 36.6705V15Z" fill="white"/>
</mask>
<g mask="url(#mask0)">
<g filter="url(#filter0_d)">
<path d="M36.9962 6.07414V37.0227H10.7388V6.07414C10.7388 5.49341 11.151 5.02271 11.6595 5.02271H36.0755C36.584 5.02271 36.9962 5.49341 36.9962 6.07414Z" fill="url(#paint1_linear)"/>
<path d="M10.7314 33.2217C9.80036 33.2607 9.05078 34.97 9.05078 37.0745C9.05078 39.1788 9.80036 40.8882 10.7314 40.9273V40.9292H35.2836C36.2291 40.9292 36.9961 39.2034 36.9961 37.0745C36.9961 34.9455 36.2291 33.2197 35.2836 33.2197H10.7314V33.2217Z" fill="url(#paint2_linear)"/>
<path d="M35.2837 33.2197C36.2293 33.2197 36.9963 34.9455 36.9963 37.0745C36.9963 39.2034 36.2293 40.9292 35.2837 40.9292C34.3373 40.9292 33.5703 39.2034 33.5703 37.0745C33.5703 34.9455 34.3373 33.2197 35.2837 33.2197Z" fill="url(#paint3_linear)"/>
<path d="M35.2836 33.2197C36.2292 33.2197 36.9962 34.9455 36.9962 37.0745C36.9962 37.3168 36.986 37.5538 36.9672 37.784C36.957 37.8468 36.9453 37.9076 36.932 37.9672C36.9155 38.0396 36.8975 38.11 36.8779 38.1776C36.8646 38.2224 36.8505 38.266 36.8356 38.3081C36.8278 38.3294 36.8207 38.3502 36.8129 38.3705C36.7048 38.657 36.5606 38.8732 36.3969 38.9851C36.3271 39.0331 36.2527 39.0624 36.1768 39.0698C36.1642 39.0709 36.1509 39.0714 36.1384 39.0714H33.8179C33.6612 38.4887 33.5703 37.8053 33.5703 37.0745C33.5703 37.0575 33.5703 37.0399 33.5711 37.0229C33.5828 34.9178 34.3451 33.2197 35.2836 33.2197Z" fill="url(#paint4_linear)"/>
<path d="M33.5709 37.0227H35.2513C35.2513 37.0397 35.2505 37.0568 35.2505 37.0744C35.2505 38.177 35.6478 39.0712 36.1381 39.0712H33.8176C33.6609 38.4885 33.5701 37.8051 33.5701 37.0744C33.5701 37.0573 33.5701 37.0397 33.5709 37.0227Z" fill="url(#paint5_linear)"/>
<path d="M24.6244 31.8511H15.6103C15.4717 31.8511 15.3594 31.7388 15.3594 31.6002V30.7248C15.3594 30.5862 15.4718 30.4739 15.6103 30.4739H24.6244C24.763 30.4739 24.8753 30.5863 24.8753 30.7248V31.6002C24.8753 31.7388 24.763 31.8511 24.6244 31.8511Z" fill="#D6D9DF"/>
<path d="M29.0851 31.8511H26.2531C26.1145 31.8511 26.0022 31.7388 26.0022 31.6002V30.7248C26.0022 30.5862 26.1146 30.4739 26.2531 30.4739H29.0851C29.2237 30.4739 29.3361 30.5863 29.3361 30.7248V31.6002C29.3361 31.7388 29.2237 31.8511 29.0851 31.8511Z" fill="#D6D9DF"/>
<path d="M32.1244 31.8511H30.6245C30.4858 31.8511 30.3735 31.7388 30.3735 31.6002V30.7248C30.3735 30.5862 30.4859 30.4739 30.6245 30.4739H32.1244C32.263 30.4739 32.3753 30.5863 32.3753 30.7248V31.6002C32.3753 31.7388 32.263 31.8511 32.1244 31.8511Z" fill="#D6D9DF"/>
<path d="M29.0637 23.4791H20.0495C19.9109 23.4791 19.7986 23.3667 19.7986 23.2281V22.3527C19.7986 22.2141 19.911 22.1018 20.0495 22.1018H29.0637C29.2023 22.1018 29.3146 22.2142 29.3146 22.3527V23.2281C29.3146 23.3667 29.2022 23.4791 29.0637 23.4791Z" fill="#D6D9DF"/>
<path d="M18.4423 23.4791H15.6103C15.4717 23.4791 15.3594 23.3667 15.3594 23.2281V22.3527C15.3594 22.2141 15.4718 22.1018 15.6103 22.1018H18.4423C18.5809 22.1018 18.6932 22.2142 18.6932 22.3527V23.2281C18.6932 23.3667 18.5809 23.4791 18.4423 23.4791Z" fill="#D6D9DF"/>
<path d="M32.1244 23.4791H30.6245C30.4858 23.4791 30.3735 23.3667 30.3735 23.2281V22.3527C30.3735 22.2141 30.4859 22.1018 30.6245 22.1018H32.1244C32.263 22.1018 32.3753 22.2142 32.3753 22.3527V23.2281C32.3753 23.3667 32.263 23.4791 32.1244 23.4791Z" fill="#D6D9DF"/>
<path d="M23.1103 17.9155H32.1244C32.263 17.9155 32.3753 18.0279 32.3753 18.1664V19.0419C32.3753 19.1805 32.2629 19.2928 32.1244 19.2928H23.1103C22.9717 19.2928 22.8594 19.1804 22.8594 19.0419V18.1665C22.8594 18.0279 22.9717 17.9155 23.1103 17.9155Z" fill="#D6D9DF"/>
<path d="M18.6496 17.9155H21.4816C21.6202 17.9155 21.7325 18.0279 21.7325 18.1664V19.0419C21.7325 19.1805 21.6202 19.2928 21.4816 19.2928H18.6496C18.511 19.2928 18.3987 19.1804 18.3987 19.0419V18.1665C18.3986 18.0279 18.511 17.9155 18.6496 17.9155Z" fill="#D6D9DF"/>
<path d="M15.6103 17.9155H17.1102C17.2488 17.9155 17.3611 18.0279 17.3611 18.1664V19.0419C17.3611 19.1805 17.2487 19.2928 17.1102 19.2928H15.6103C15.4717 19.2928 15.3594 19.1804 15.3594 19.0419V18.1665C15.3593 18.0279 15.4717 17.9155 15.6103 17.9155Z" fill="#D6D9DF"/>
<path d="M18.6713 26.2876H27.6854C27.824 26.2876 27.9364 26.4 27.9364 26.5385V27.4139C27.9364 27.5525 27.824 27.6649 27.6854 27.6649H18.6713C18.5327 27.6649 18.4204 27.5525 18.4204 27.4139V26.5385C18.4203 26.4 18.5327 26.2876 18.6713 26.2876Z" fill="#D6D9DF"/>
<path d="M29.2924 26.2876H32.1244C32.2631 26.2876 32.3754 26.4 32.3754 26.5385V27.4139C32.3754 27.5525 32.263 27.6649 32.1244 27.6649H29.2924C29.1538 27.6649 29.0415 27.5525 29.0415 27.4139V26.5385C29.0414 26.4 29.1538 26.2876 29.2924 26.2876Z" fill="#D6D9DF"/>
<path d="M15.6103 26.2876H17.1102C17.2488 26.2876 17.3611 26.4 17.3611 26.5385V27.4139C17.3611 27.5525 17.2487 27.6649 17.1102 27.6649H15.6103C15.4717 27.6649 15.3594 27.5525 15.3594 27.4139V26.5385C15.3593 26.4 15.4717 26.2876 15.6103 26.2876Z" fill="#D6D9DF"/>
<path d="M35.72 11.5246C35.6133 11.3709 35.4665 11.2453 35.2908 11.165L34.0476 10.5966C34.0376 10.592 34.0282 10.5863 34.0184 10.5814C34.0064 10.5713 33.9941 10.5619 33.9818 10.5525L32.7843 9.34327C32.5334 9.06974 32.3453 9.07287 31.9815 9.14675L30.6432 9.41833C30.5043 9.4465 30.3611 9.4465 30.2221 9.41833L28.8838 9.14675C28.52 9.07294 28.1442 9.19502 27.8932 9.46848L26.9699 10.4748C26.8742 10.579 26.7587 10.6631 26.63 10.7218L25.3868 11.2903C25.0499 11.4444 24.818 11.7633 24.7754 12.1313L24.6181 13.4899C24.6019 13.6297 24.558 13.7649 24.4889 13.8875L23.8176 15.0796C23.636 15.4021 23.636 15.796 23.8176 16.1185L24.4889 17.3106C24.558 17.4333 24.6019 17.5685 24.6181 17.7083L24.7754 18.9417C24.8107 19.2468 24.7887 19.5179 25.0363 19.6896C25.147 19.7572 25.8333 19.5353 25.9381 19.6079C25.9685 19.6518 25.6367 20.7054 25.6367 20.8887V27.0152C25.6367 27.1645 25.771 27.2642 25.9031 27.2436V27.2816L35.6441 37.0227H36.9963V12.8008L35.72 11.5246Z" fill="url(#paint6_linear)"/>
<path d="M30.2285 16.2305C27.6815 16.2393 25.6365 18.3419 25.6365 20.8888V27.0153C25.6365 27.202 25.8465 27.3116 25.9996 27.2048L29.8079 24.5515C30.0704 24.3686 30.4191 24.3686 30.6817 24.5515L34.4899 27.2048C34.6431 27.3116 34.853 27.202 34.853 27.0153V20.8388C34.853 18.2882 32.781 16.2217 30.2285 16.2305Z" fill="url(#paint7_linear)"/>
<path d="M34.8531 27.0153V20.8388C34.8531 18.2882 32.7811 16.2217 30.2285 16.2305C28.0395 16.2381 26.2212 17.7923 25.7534 19.846L25.7663 19.9031L30.2788 24.4156C30.4201 24.4218 30.5602 24.4668 30.6817 24.5515L34.4899 27.2048C34.6432 27.3116 34.8531 27.202 34.8531 27.0153Z" fill="url(#paint8_linear)"/>
<path d="M27.597 17.0789V26.0918L26.6155 26.7758V18.0229C26.8947 17.6623 27.2251 17.3436 27.5963 17.0797L27.597 17.0789Z" fill="url(#paint9_linear)"/>
<path d="M33.8741 17.999V26.7759L32.8926 26.0919V17.0671C33.2637 17.328 33.5945 17.6424 33.8741 17.999Z" fill="url(#paint10_linear)"/>
<path d="M30.2449 16.2305V24.4141C30.3977 24.4141 30.5505 24.4598 30.6817 24.5513L34.49 27.2046C34.6431 27.3114 34.8531 27.2017 34.8531 27.0151V20.8385C34.8531 18.2935 32.79 16.2305 30.2449 16.2305V16.2305Z" fill="url(#paint11_linear)"/>
<path d="M34.4899 26.4578L30.6817 23.8044C30.4191 23.6215 30.0704 23.6215 29.8079 23.8044L25.9996 26.4578C25.8465 26.5645 25.6365 26.4549 25.6365 26.2682V27.0152C25.6365 27.2018 25.8465 27.3115 25.9996 27.2047L29.8079 24.5514C30.0704 24.3684 30.4191 24.3684 30.6817 24.5514L34.4899 27.2047C34.6431 27.3115 34.853 27.2018 34.853 27.0152V26.2682C34.853 26.4549 34.6431 26.5645 34.4899 26.4578Z" fill="url(#paint12_linear)"/>
<path d="M27.597 17.0786V21.7341L26.6155 20.7525V18.0226C26.635 17.9975 26.655 17.9725 26.6749 17.9475C26.696 17.9213 26.7179 17.8947 26.7398 17.8689C26.7578 17.8478 26.7758 17.8267 26.7938 17.806C26.8305 17.7641 26.8677 17.7227 26.906 17.6824C26.9197 17.6675 26.9338 17.6531 26.9479 17.6386C26.9846 17.5999 27.0225 17.5623 27.0609 17.5252C27.0984 17.4888 27.1364 17.4528 27.1754 17.418C27.1824 17.4114 27.1895 17.4051 27.1965 17.3988C27.2165 17.3809 27.2364 17.3633 27.2567 17.3461C27.29 17.3171 27.3236 17.289 27.3577 17.2612C27.3737 17.248 27.3897 17.2351 27.4062 17.2221C27.4215 17.21 27.4367 17.1983 27.4519 17.1865C27.4833 17.1623 27.5145 17.1388 27.5462 17.1157C27.5626 17.1032 27.5794 17.0915 27.5963 17.0794L27.597 17.0786Z" fill="url(#paint13_linear)"/>
<path d="M33.8741 17.999V26.7759L32.8926 26.0919V17.0671C33.2637 17.328 33.5945 17.6424 33.8741 17.999Z" fill="url(#paint14_linear)"/>
<path d="M36.86 15.9932L36.1887 17.1853C36.1196 17.3079 36.0757 17.4431 36.0595 17.583L35.9022 18.9416C35.8596 19.3096 35.6277 19.6285 35.2908 19.7826L34.0476 20.351C33.9189 20.4098 33.8034 20.4938 33.7078 20.598L32.7844 21.6043C32.5334 21.8778 32.1576 21.9999 31.7938 21.926L30.4555 21.6544C30.3165 21.6263 30.1733 21.6263 30.0344 21.6544L28.6961 21.926C28.3323 21.9998 27.9565 21.8778 27.7055 21.6043L26.7821 20.598C26.6864 20.4937 26.5709 20.4097 26.4423 20.3509L25.1991 19.7825C24.8621 19.6285 24.6302 19.3096 24.5877 18.9415L24.4303 17.5829C24.4141 17.4431 24.3702 17.3079 24.3012 17.1852L23.6299 15.9932C23.4482 15.6707 23.4482 15.2768 23.6299 14.9542L24.3012 13.7622C24.3702 13.6395 24.4142 13.5044 24.4303 13.3645L24.5877 12.0059C24.6303 11.6379 24.8622 11.3189 25.1991 11.1649L26.4423 10.5965C26.5709 10.5377 26.6865 10.4537 26.7821 10.3494L27.7055 9.34317C27.9565 9.06965 28.3323 8.94757 28.6961 9.02144L30.0344 9.29302C30.1734 9.32119 30.3166 9.32119 30.4555 9.29302L31.7938 9.02144C32.1576 8.94763 32.5334 9.06971 32.7844 9.34317L33.7078 10.3495C33.8034 10.4537 33.9189 10.5377 34.0476 10.5965L35.2908 11.1649C35.6277 11.319 35.8596 11.6379 35.9022 12.006L36.0595 13.3646C36.0757 13.5044 36.1196 13.6396 36.1887 13.7622L36.86 14.9543C37.0416 15.2768 37.0416 15.6708 36.86 15.9932Z" fill="url(#paint15_radial)"/>
<path d="M24.2743 15.005L24.8802 13.929C24.9426 13.8183 24.9822 13.6963 24.9968 13.5701L25.1388 12.3439C25.1772 12.0118 25.3865 11.7239 25.6907 11.5849L26.8127 11.0718C26.9289 11.0188 27.0331 10.9429 27.1194 10.8489L27.9528 9.94069C28.1793 9.69384 28.5185 9.58365 28.8469 9.65027L30.0548 9.89537C30.1802 9.92085 30.3095 9.92085 30.4349 9.89537L31.6428 9.6502C31.9711 9.58359 32.3104 9.69378 32.5369 9.94057L33.3703 10.8488C33.4566 10.9429 33.5609 11.0186 33.677 11.0717L34.7991 11.5848C35.1031 11.7238 35.3124 12.0117 35.3509 12.3438L35.4929 13.57C35.5075 13.6962 35.5472 13.8182 35.6095 13.9289L36.2154 15.0048C36.3793 15.2959 36.3793 15.6514 36.2154 15.9425L35.6095 17.0184C35.5471 17.1291 35.5075 17.2511 35.4929 17.3773L35.3509 18.6035C35.3125 18.9356 35.1032 19.2236 34.7991 19.3625L33.677 19.8756C33.5608 19.9287 33.4566 20.0045 33.3703 20.0985L32.5369 21.0068C32.3104 21.2536 31.9712 21.3638 31.6428 21.2972L30.4349 21.0521C30.3095 21.0266 30.1802 21.0266 30.0548 21.0521L28.8469 21.2972C28.5186 21.3638 28.1793 21.2536 27.9528 21.0068L27.1194 20.0986C27.0331 20.0045 26.9288 19.9288 26.8127 19.8757L25.6907 19.3626C25.3866 19.2236 25.1773 18.9357 25.1388 18.6036L24.9968 17.3774C24.9822 17.2512 24.9425 17.1292 24.8802 17.0185L24.2743 15.9425C24.1104 15.6516 24.1104 15.296 24.2743 15.005Z" fill="url(#paint16_radial)"/>
<path d="M30.2447 20.6987C33.1303 20.6987 35.4695 18.3595 35.4695 15.474C35.4695 12.5885 33.1303 10.2493 30.2447 10.2493C27.3592 10.2493 25.02 12.5885 25.02 15.474C25.02 18.3595 27.3592 20.6987 30.2447 20.6987Z" fill="url(#paint17_linear)"/>
<path d="M34.5141 14.1033C34.4721 14.0162 34.3901 13.9475 34.2787 13.9316L33.1162 13.7625L30.5253 11.1779V11.1779C30.4685 11.061 30.3566 11.002 30.2448 11.002C30.1329 11.002 30.021 11.061 29.9642 11.1779L28.8097 13.5536L26.2107 13.9316C26.0821 13.9499 25.9925 14.0384 25.9586 14.1447C25.9241 14.2516 25.9458 14.3763 26.0398 14.4659L27.8816 16.3026C27.8855 16.3079 27.89 16.313 27.8943 16.3181L27.4687 18.801C27.4469 18.9263 27.501 19.0376 27.5889 19.1033L30.1259 21.6404C30.2356 21.628 30.3467 21.6325 30.4552 21.6546L31.7936 21.9261C32.1573 22 32.5332 21.8779 32.7842 21.6044L33.7075 20.5982C33.8032 20.4939 33.9187 20.41 34.0474 20.3511L35.2906 19.7827C35.6275 19.6287 35.8594 19.3097 35.902 18.9417L36.0593 17.5831C36.0755 17.4433 36.1194 17.3081 36.1885 17.1854L36.6956 16.2849L34.5141 14.1033Z" fill="url(#paint18_linear)"/>
<path fill-rule="evenodd" clip-rule="evenodd" d="M34.2788 13.9316C34.4074 13.9499 34.497 14.0384 34.531 14.1447C34.5655 14.2516 34.5437 14.3763 34.4498 14.4659L32.5828 16.2455L33.0209 18.801C33.0425 18.9263 32.9886 19.0376 32.9006 19.1033C32.8121 19.1695 32.6891 19.1901 32.5744 19.1328L30.2449 17.9716L27.9153 19.1328C27.8007 19.1901 27.6777 19.1695 27.5892 19.1033C27.5013 19.0376 27.4472 18.9263 27.469 18.801L27.907 16.2455L26.0401 14.4659C25.946 14.3763 25.9243 14.2516 25.9588 14.1447C25.9928 14.0384 26.0824 13.9499 26.211 13.9316L28.8099 13.5536L29.9644 11.1779C30.0211 11.061 30.133 11.002 30.2449 11.002C30.3568 11.002 30.4686 11.061 30.5254 11.1779L31.6799 13.5536L34.2788 13.9316ZM30.2573 15.5253L30.2635 15.5235L30.2699 15.5253L30.2672 15.5226L30.2636 15.5173L30.26 15.5226L30.2573 15.5253Z" fill="url(#paint19_linear)"/>
<path d="M30.2427 15.5035L30.241 15.5052L27.907 16.2455L26.0401 14.4659C25.946 14.3763 25.9243 14.2516 25.9588 14.1448L30.2427 15.5035Z" fill="url(#paint20_linear)"/>
<path d="M30.241 15.5051L27.5891 19.1032C27.5012 19.0376 27.4472 18.9263 27.4689 18.801L27.907 16.2454L30.241 15.5051Z" fill="url(#paint21_linear)"/>
<path d="M32.9006 19.1034C32.8121 19.1696 32.689 19.1902 32.5744 19.1329L30.2449 17.9717V15.5042L30.2488 15.5053L32.9006 19.1034Z" fill="url(#paint22_linear)"/>
<path d="M30.2448 15.5042V17.9717L27.9153 19.1329C27.8006 19.1902 27.6776 19.1696 27.5891 19.1034L30.2409 15.5053L30.2448 15.5042Z" fill="url(#paint23_linear)"/>
<path d="M32.9006 19.1032L30.2488 15.5051L32.5828 16.2454L33.0208 18.801C33.0426 18.9263 32.9886 19.0376 32.9006 19.1032Z" fill="url(#paint24_linear)"/>
<path d="M30.2449 15.5003L30.2426 15.5036L25.9587 14.1448C25.9927 14.0385 26.0823 13.95 26.2109 13.9317L28.8099 13.5537L30.2449 15.5003Z" fill="url(#paint25_linear)"/>
<path d="M31.6799 13.5536L30.2449 15.5001V11.002C30.3567 11.002 30.4686 11.061 30.5254 11.1779L31.6799 13.5536Z" fill="url(#paint26_linear)"/>
<path d="M30.2449 11.002V15.5001L28.8098 13.5536L29.9643 11.1779C30.0211 11.061 30.133 11.002 30.2449 11.002Z" fill="url(#paint27_linear)"/>
<path d="M34.531 14.1448L30.2471 15.5036L30.2449 15.5003L31.6799 13.5537L34.2788 13.9317C34.4074 13.95 34.4971 14.0385 34.531 14.1448Z" fill="url(#paint28_linear)"/>
<path d="M34.4497 14.466L32.5828 16.2456L30.2488 15.5053L30.2471 15.5036L34.531 14.1448C34.5655 14.2517 34.5437 14.3764 34.4497 14.466Z" fill="url(#paint29_linear)"/>
<path fill-rule="evenodd" clip-rule="evenodd" d="M33.5955 14.1268C33.7024 14.1421 33.7768 14.2156 33.805 14.3039C33.8337 14.3927 33.8157 14.4963 33.7375 14.5707L32.1867 16.0489L32.5505 18.1716C32.5686 18.2756 32.5237 18.3682 32.4507 18.4227C32.3772 18.4777 32.2749 18.4948 32.1797 18.4472L30.2447 17.4827L28.3097 18.4472C28.2145 18.4948 28.1122 18.4777 28.0387 18.4227C27.9657 18.3682 27.9209 18.2757 27.9389 18.1716L28.3028 16.0489L26.752 14.5707C26.6738 14.4963 26.6558 14.3927 26.6845 14.3039C26.7127 14.2156 26.7871 14.1421 26.8939 14.1268L29.0528 13.8129L30.0118 11.8395C30.0589 11.7424 30.1519 11.6934 30.2448 11.6934C30.3377 11.6934 30.4306 11.7424 30.4778 11.8395L31.4367 13.8129L33.5955 14.1268ZM30.2583 15.4539L30.2635 15.4524L30.2686 15.4539L30.2664 15.4517L30.2635 15.4473L30.2605 15.4517L30.2583 15.4539Z" fill="url(#paint30_linear)"/>
</g>
</g>
<defs>
<filter id="filter0_d" x="0.0507812" y="0.0227051" width="45.9455" height="53.9065" filterUnits="userSpaceOnUse" color-interpolation-filters="sRGB">
<feFlood flood-opacity="0" result="BackgroundImageFix"/>
<feColorMatrix in="SourceAlpha" type="matrix" values="0 0 0 0 0 0 0 0 0 0 0 0 0 0 0 0 0 0 127 0"/>
<feOffset dy="4"/>
<feGaussianBlur stdDeviation="4.5"/>
<feColorMatrix type="matrix" values="0 0 0 0 0 0 0 0 0 0.281597 0 0 0 0 0.865404 0 0 0 0.5 0"/>
<feBlend mode="normal" in2="BackgroundImageFix" result="effect1_dropShadow"/>
<feBlend mode="normal" in="SourceGraphic" in2="effect1_dropShadow" result="shape"/>
</filter>
<linearGradient id="paint0_linear" x1="4" y1="7" x2="4" y2="52.6" gradientUnits="userSpaceOnUse">
<stop stop-color="#44D5FF"/>
<stop offset="1" stop-color="#1AAAFF"/>
</linearGradient>
<linearGradient id="paint1_linear" x1="0.354929" y1="26.9809" x2="33.8752" y2="52.7535" gradientUnits="userSpaceOnUse">
<stop stop-color="#F9F7FC"/>
<stop offset="1" stop-color="#F0DDFC"/>
</linearGradient>
<linearGradient id="paint2_linear" x1="32.831" y1="39.1056" x2="32.831" y2="33.6943" gradientUnits="userSpaceOnUse">
<stop stop-color="#F9F7FC"/>
<stop offset="1" stop-color="#F0DDFC"/>
</linearGradient>
<linearGradient id="paint3_linear" x1="38.3654" y1="30.375" x2="32.4112" y2="30.375" gradientUnits="userSpaceOnUse">
<stop stop-color="#F0DDFC" stop-opacity="0.01"/>
<stop offset="0.2889" stop-color="#C8B7E0" stop-opacity="0.289"/>
<stop offset="0.5915" stop-color="#A595C8" stop-opacity="0.592"/>
<stop offset="0.8395" stop-color="#8F81B8" stop-opacity="0.84"/>
<stop offset="1" stop-color="#8779B3"/>
</linearGradient>
<linearGradient id="paint4_linear" x1="36.171" y1="29.2495" x2="29.5193" y2="31.5294" gradientUnits="userSpaceOnUse">
<stop stop-color="#F0DDFC" stop-opacity="0.01"/>
<stop offset="0.2889" stop-color="#C8B7E0" stop-opacity="0.289"/>
<stop offset="0.5915" stop-color="#A595C8" stop-opacity="0.592"/>
<stop offset="0.8395" stop-color="#8F81B8" stop-opacity="0.84"/>
<stop offset="1" stop-color="#8779B3"/>
</linearGradient>
<linearGradient id="paint5_linear" x1="37.1769" y1="36.5588" x2="33.6963" y2="32.1456" gradientUnits="userSpaceOnUse">
<stop stop-color="#F9F7FC"/>
<stop offset="1" stop-color="#F0DDFC"/>
</linearGradient>
<linearGradient id="paint6_linear" x1="40.7336" y1="12.7027" x2="26.0629" y2="9.76499" gradientUnits="userSpaceOnUse">
<stop stop-color="#F0DDFC" stop-opacity="0.01"/>
<stop offset="0.2889" stop-color="#C8B7E0" stop-opacity="0.289"/>
<stop offset="0.5915" stop-color="#A595C8" stop-opacity="0.592"/>
<stop offset="0.8395" stop-color="#8F81B8" stop-opacity="0.84"/>
<stop offset="1" stop-color="#8779B3"/>
</linearGradient>
<linearGradient id="paint7_linear" x1="23.7559" y1="24.1208" x2="32.3357" y2="31.9329" gradientUnits="userSpaceOnUse">
<stop stop-color="#FF7044"/>
<stop offset="1" stop-color="#F92814"/>
</linearGradient>
<linearGradient id="paint8_linear" x1="32.4546" y1="24.0397" x2="31.9857" y2="19.5289" gradientUnits="userSpaceOnUse">
<stop stop-color="#F92814" stop-opacity="0.01"/>
<stop offset="1" stop-color="#C1272D"/>
</linearGradient>
<linearGradient id="paint9_linear" x1="25.453" y1="40.6002" x2="29.6677" y2="40.6563" gradientUnits="userSpaceOnUse">
<stop stop-color="#F9F7FC"/>
<stop offset="1" stop-color="#F0DDFC"/>
</linearGradient>
<linearGradient id="paint10_linear" x1="31.3867" y1="43.6401" x2="36.2773" y2="43.7051" gradientUnits="userSpaceOnUse">
<stop stop-color="#F9F7FC"/>
<stop offset="1" stop-color="#F0DDFC"/>
</linearGradient>
<linearGradient id="paint11_linear" x1="33.3337" y1="11.8816" x2="24.9843" y2="10.8198" gradientUnits="userSpaceOnUse">
<stop stop-color="#18CFFC" stop-opacity="0.01"/>
<stop offset="1" stop-color="#65E1DC"/>
</linearGradient>
<linearGradient id="paint12_linear" x1="38.7115" y1="26.3329" x2="38.7115" y2="19.7566" gradientUnits="userSpaceOnUse">
<stop stop-color="#F92814" stop-opacity="0.01"/>
<stop offset="1" stop-color="#C1272D"/>
</linearGradient>
<linearGradient id="paint13_linear" x1="27.6175" y1="24.299" x2="27.6175" y2="19.4489" gradientUnits="userSpaceOnUse">
<stop stop-color="#F0DDFC" stop-opacity="0.01"/>
<stop offset="0.2889" stop-color="#C8B7E0" stop-opacity="0.289"/>
<stop offset="0.5915" stop-color="#A595C8" stop-opacity="0.592"/>
<stop offset="0.8395" stop-color="#8F81B8" stop-opacity="0.84"/>
<stop offset="1" stop-color="#8779B3"/>
</linearGradient>
<linearGradient id="paint14_linear" x1="33.6285" y1="24.2991" x2="33.6285" y2="19.4489" gradientUnits="userSpaceOnUse">
<stop stop-color="#F0DDFC" stop-opacity="0.01"/>
<stop offset="0.2889" stop-color="#C8B7E0" stop-opacity="0.289"/>
<stop offset="0.5915" stop-color="#A595C8" stop-opacity="0.592"/>
<stop offset="0.8395" stop-color="#8F81B8" stop-opacity="0.84"/>
<stop offset="1" stop-color="#8779B3"/>
</linearGradient>
<radialGradient id="paint15_radial" cx="0" cy="0" r="1" gradientUnits="userSpaceOnUse" gradientTransform="translate(28.6108 11.7086) scale(10.9692 10.5179)">
<stop stop-color="#FFDA45"/>
<stop offset="0.509" stop-color="#FFD844"/>
<stop offset="0.6924" stop-color="#FFD140"/>
<stop offset="0.823" stop-color="#FFC639"/>
<stop offset="0.9279" stop-color="#FFB52F"/>
<stop offset="1" stop-color="#FFA425"/>
</radialGradient>
<radialGradient id="paint16_radial" cx="0" cy="0" r="1" gradientUnits="userSpaceOnUse" gradientTransform="translate(31.7196 18.872) rotate(180) scale(9.90022 9.49262)">
<stop stop-color="#FFDA45"/>
<stop offset="0.509" stop-color="#FFD844"/>
<stop offset="0.6924" stop-color="#FFD140"/>
<stop offset="0.823" stop-color="#FFC639"/>
<stop offset="0.9279" stop-color="#FFB52F"/>
<stop offset="1" stop-color="#FFA425"/>
</radialGradient>
<linearGradient id="paint17_linear" x1="22.8398" y1="16.8734" x2="31.6441" y2="25.6776" gradientUnits="userSpaceOnUse">
<stop stop-color="#FFDA45"/>
<stop offset="1" stop-color="#FFA425"/>
</linearGradient>
<linearGradient id="paint18_linear" x1="43.6675" y1="15.3713" x2="29.4249" y2="3.56777" gradientUnits="userSpaceOnUse">
<stop stop-color="#FFDA45" stop-opacity="0.01"/>
<stop offset="0.5194" stop-color="#D9874F" stop-opacity="0.519"/>
<stop offset="1" stop-color="#B53759"/>
</linearGradient>
<linearGradient id="paint19_linear" x1="25.0154" y1="17.1191" x2="31.1637" y2="24.1921" gradientUnits="userSpaceOnUse">
<stop stop-color="#FFDA45"/>
<stop offset="1" stop-color="#FCB37E"/>
</linearGradient>
<linearGradient id="paint20_linear" x1="23.1504" y1="15.3712" x2="24.2654" y2="20.3527" gradientUnits="userSpaceOnUse">
<stop stop-color="#FCB37E" stop-opacity="0.01"/>
<stop offset="1" stop-color="#FF7044"/>
</linearGradient>
<linearGradient id="paint21_linear" x1="27.4641" y1="19.1032" x2="30.241" y2="19.1032" gradientUnits="userSpaceOnUse">
<stop stop-color="#FFDA45"/>
<stop offset="1" stop-color="#FCB37E"/>
</linearGradient>
<linearGradient id="paint22_linear" x1="27.6445" y1="19.261" x2="33.4999" y2="22.73" gradientUnits="userSpaceOnUse">
<stop stop-color="#FCB37E" stop-opacity="0.01"/>
<stop offset="1" stop-color="#FF7044"/>
</linearGradient>
<linearGradient id="paint23_linear" x1="26.9415" y1="21.612" x2="33.0386" y2="21.5014" gradientUnits="userSpaceOnUse">
<stop stop-color="#FCB37E" stop-opacity="0.01"/>
<stop offset="1" stop-color="#FF7044"/>
</linearGradient>
<linearGradient id="paint24_linear" x1="34.9903" y1="18.8529" x2="32.5013" y2="12.2674" gradientUnits="userSpaceOnUse">
<stop stop-color="#FFDA45"/>
<stop offset="1" stop-color="#FCB37E"/>
</linearGradient>
<linearGradient id="paint25_linear" x1="23.4738" y1="14.1443" x2="23.6682" y2="18.2031" gradientUnits="userSpaceOnUse">
<stop stop-color="#FFDA45"/>
<stop offset="1" stop-color="#FCB37E"/>
</linearGradient>
<linearGradient id="paint26_linear" x1="32.2233" y1="4.84266" x2="26.3758" y2="4.60709" gradientUnits="userSpaceOnUse">
<stop stop-color="#FCB37E" stop-opacity="0.01"/>
<stop offset="1" stop-color="#FF7044"/>
</linearGradient>
<linearGradient id="paint27_linear" x1="28.5469" y1="16.6447" x2="32.2882" y2="17.2947" gradientUnits="userSpaceOnUse">
<stop stop-color="#FCB37E" stop-opacity="0.01"/>
<stop offset="1" stop-color="#FF7044"/>
</linearGradient>
<linearGradient id="paint28_linear" x1="27.6649" y1="12.6469" x2="26.2947" y2="18.5118" gradientUnits="userSpaceOnUse">
<stop stop-color="#FCB37E" stop-opacity="0.01"/>
<stop offset="1" stop-color="#FF7044"/>
</linearGradient>
<linearGradient id="paint29_linear" x1="37.7045" y1="16.3622" x2="38.1734" y2="10.7167" gradientUnits="userSpaceOnUse">
<stop stop-color="#FCB37E" stop-opacity="0.01"/>
<stop offset="1" stop-color="#FF7044"/>
</linearGradient>
<linearGradient id="paint30_linear" x1="31.7786" y1="14.6641" x2="30.0451" y2="11.8838" gradientUnits="userSpaceOnUse">
<stop stop-color="#FFDA45" stop-opacity="0.01"/>
<stop offset="1" stop-color="#FFEE83"/>
</linearGradient>
</defs>
</svg>
