<svg width="40" height="55" viewBox="0 0 40 55" fill="none" xmlns="http://www.w3.org/2000/svg">
<path fill-rule="evenodd" clip-rule="evenodd" d="M1 16C1 11.5817 4.58172 8 9 8H31C35.4183 8 39 11.5817 39 16V37.6705C39 40.4806 37.5256 43.0846 35.116 44.5304L24.116 51.1304C21.5825 52.6505 18.4175 52.6505 15.884 51.1304L4.88404 44.5304C2.4744 43.0846 1 40.4806 1 37.6705V16Z" fill="url(#paint0_linear)"/>
<mask id="mask0" mask-type="alpha" maskUnits="userSpaceOnUse" x="1" y="8" width="38" height="45">
<path fill-rule="evenodd" clip-rule="evenodd" d="M1 16C1 11.5817 4.58172 8 9 8H31C35.4183 8 39 11.5817 39 16V37.6705C39 40.4806 37.5256 43.0846 35.116 44.5304L24.116 51.1304C21.5825 52.6505 18.4175 52.6505 15.884 51.1304L4.88404 44.5304C2.4744 43.0846 1 40.4806 1 37.6705V16Z" fill="white"/>
</mask>
<g mask="url(#mask0)">
<g filter="url(#filter0_d)">
<path d="M19.9999 13C14.9178 13 10.306 14.9989 6.89648 18.2486V30.0345L17.6584 43.4708C18.8594 44.9702 21.1405 44.9702 22.3414 43.4708L33.1034 30.0345V18.2486C29.6939 14.9989 25.0821 13 19.9999 13Z" fill="#FFEFDC"/>
<path d="M19.9998 35.9312C17.5442 35.9312 15.3527 37.058 13.9106 38.8218L17.6355 43.4878C18.8325 44.9873 21.1102 44.9932 22.3149 43.4998L26.089 38.8218C24.647 37.058 22.4554 35.9312 19.9998 35.9312Z" fill="#4C4C4C"/>
<path d="M20 5C17.6964 5 15.4904 5.41472 13.4482 6.16621V24.7931L19.9679 30.0089C19.981 30.0194 20 30.0096 20 29.9932C20 30.0096 20.019 30.0194 20.0321 30.0089L26.5517 24.7931V6.16621C24.5095 5.41472 22.3036 5 20 5Z" fill="#FFCE2B"/>
<path d="M7.17952 29.8078L13.4482 24.7932V2.16626C10.9854 3.07302 8.76045 4.47247 6.89648 6.24864V29.6716C6.89648 29.8177 7.06552 29.8989 7.17952 29.8078Z" fill="#FF961E"/>
<path d="M26.5518 24.7932L32.8204 29.8078C32.9344 29.8989 33.1035 29.8177 33.1035 29.6716V6.24864C31.2395 4.47247 29.0146 3.07302 26.5518 2.16626V24.7932Z" fill="#FF961E"/>
</g>
</g>
<defs>
<filter id="filter0_d" x="0.896484" y="0.16626" width="38.207" height="54.4499" filterUnits="userSpaceOnUse" color-interpolation-filters="sRGB">
<feFlood flood-opacity="0" result="BackgroundImageFix"/>
<feColorMatrix in="SourceAlpha" type="matrix" values="0 0 0 0 0 0 0 0 0 0 0 0 0 0 0 0 0 0 127 0"/>
<feOffset dy="4"/>
<feGaussianBlur stdDeviation="3"/>
<feColorMatrix type="matrix" values="0 0 0 0 0 0 0 0 0 0.571983 0 0 0 0 0.154339 0 0 0 0.5 0"/>
<feBlend mode="normal" in2="BackgroundImageFix" result="effect1_dropShadow"/>
<feBlend mode="normal" in="SourceGraphic" in2="effect1_dropShadow" result="shape"/>
</filter>
<linearGradient id="paint0_linear" x1="1" y1="8" x2="1" y2="53.6" gradientUnits="userSpaceOnUse">
<stop stop-color="#C7FF44"/>
<stop offset="1" stop-color="#7AD651"/>
</linearGradient>
</defs>
</svg>
